<?xml version="1.0" encoding="UTF-8" standalone="no"?>
<svg width="753px" height="344px" viewBox="0 0 753 344" version="1.1" xmlns="http://www.w3.org/2000/svg" xmlns:xlink="http://www.w3.org/1999/xlink">
    <!-- Generator: Sketch 39.1 (31720) - http://www.bohemiancoding.com/sketch -->
    <title>img-case-logo-netpure</title>
    <desc>Created with Sketch.</desc>
    <defs></defs>
    <g id="Page-1" stroke="none" stroke-width="1" fill="none" fill-rule="evenodd">
        <g id="img-case-logo-netpure" fill="#FFFFFF">
            <g id="::_netpure">
                <path d="M397.266,112.512 L397.229,112.502 C396.704,112.378 396.175,112.253 395.646,112.154 C389.382959,110.888008 383.023845,110.155383 376.637,109.964 L376.15,154.723 C377.262,154.314 378.539,153.777 380.023,153.066 C380.285,152.556 380.543,152.058 380.796,151.541 C384.569,143.979 388.183,135.941 391.849,126.962 C393.586,122.7 395.314,118.085 397.266,112.512 L397.266,112.512 Z M348.591,112.14 C348.018,112.248 347.46,112.38 346.905,112.512 L346.9,112.512 C348.856,118.095 350.584,122.712 352.314,126.958 C355.982,135.936 359.599,143.975 363.365,151.529 C363.482,151.771 363.609,152.008 363.73,152.255 C365.33,153.164 366.736,153.905 367.895,154.436 L367.41,109.96 C361.087304,110.162236 354.792488,110.89143 348.591,112.14 L348.591,112.14 Z M407.13,115.148 C404.939,120.414 402.547,125.642 400.009,130.692 C397.309,136.105 394.303,141.492 391.091,146.792 C392.037,146.192 392.968,145.607 393.984,144.933 C403.900816,138.068732 412.922198,129.993663 420.839,120.895 C419.888,120.395 418.994,119.88 417.987,119.401 C414.4506,117.780901 410.825875,116.360992 407.13,115.148 L407.13,115.148 Z M337.03,115.148 C333.348091,116.35671 329.737348,117.772295 326.215,119.388 C325.667,119.648 325.192,119.937 324.663,120.205 C332.787229,129.37049 341.906748,137.602877 351.853,144.75 C349.099,140.108 346.508,135.411 344.153,130.685 C341.615,125.627 339.223,120.4 337.034,115.152 L337.03,115.148 Z M333.769,61.518 C334.619,66.424 335.569,71.349 336.469,75.964 C338.255,84.275 340.537,92.953 343.241,101.736 L343.341,102.028 C351.160176,99.9092316 359.190308,98.6646165 367.284,98.317 L366.839,57.481 C358.728489,57.6552816 350.640989,58.4122315 342.639,59.746 C339.953,60.178 337.118,60.741 333.773,61.522 L333.769,61.518 Z M333.139,105.172 C329.905762,96.4402232 327.271653,87.498152 325.255,78.408 C324.202,73.755 323.279,69.131 322.514,64.65 C319.473,65.634 316.793,66.594 314.342,67.571 C309.614558,69.5133613 305.054858,71.8412064 300.709,74.531 C300.973,76.416 301.289,78.312 301.709,80.231 C304.233,91.752 310.862,103.048 318.655,113.006 C319.697,112.324 320.694,111.615 321.792,110.976 C325.457373,108.834876 329.277296,106.97004 333.22,105.397 L333.139,105.172 Z M421.639,64.643 C420.876,69.119 419.958,73.743 418.896,78.412 C416.880734,87.5058891 414.246262,96.4514023 411.011,105.186 L410.946,105.352 C414.909952,106.931509 418.750314,108.80506 422.435,110.957 C423.91,111.817 425.277,112.757 426.648,113.682 C434.116,103.766 440.343,92.333 442.473,80.226 C442.819,78.262 443.067,76.326 443.264,74.399 C438.988646,71.7684384 434.507341,69.4883237 429.864,67.581 C427.412,66.606 424.781,65.662 421.644,64.647 L421.639,64.643 Z M400.918,101.732 C403.618,92.962 405.899,84.287 407.692,75.95 C408.586,71.35 409.537,66.424 410.384,61.513 C407.079,60.743 404.26,60.183 401.592,59.765 C393.530989,58.4133319 385.381924,57.6529708 377.21,57.49 L376.763,98.307 C384.899081,98.6401676 392.97248,99.8811969 400.833,102.007 L400.918,101.732 Z M332.111,50.812 C343.418882,47.8492532 355.026509,46.1795664 366.711,45.835 L366.211,0.008 C363.397,0.186666667 360.649667,0.484 357.969,0.9 C353.447819,1.90011369 349.08933,3.52966608 345.021,5.741 C338.052627,9.59914905 333.246046,16.4479924 331.987,24.313 C330.302,32.242 331.009,40.827 331.957,49.667 C332,50.041 332.06,50.429 332.116,50.816 L332.111,50.812 Z M423.526,50.903 C423.418,51.961 423.287,53.003 423.161,54.059 L423.123,54.344 C426.757731,55.6701732 430.320599,57.1855771 433.797,58.884 C437.213541,60.5757543 440.517997,62.4850108 443.69,64.6 C443.26,45.121 435.245,28.193 421.518,16.529 C421.653,16.848 421.766,17.123 421.906,17.469 C425.96,27.272 424.439,42.069 423.531,50.908 L423.526,50.903 Z M412.2,49.648 C413.146,40.829 413.853,32.248 412.172,24.339 C410.915926,16.4712966 406.11381,9.61729425 399.148,5.75 C395.040641,3.51827791 390.638422,1.87838728 386.072,0.879 C383.398,0.463666667 380.653,0.170666667 377.837,0 L377.337,45.832 C389.057121,46.1591301 400.701843,47.8201696 412.046,50.783 C412.1,50.407 412.159,50.032 412.205,49.653 L412.2,49.648 Z M321.034,54.383 L321,54.083 C320.864,53.03 320.733,51.973 320.627,50.906 C319.778,42.661 318.193,27.306 322.245,17.474 C322.467,16.931 322.661,16.465 322.865,15.98 C308.076428,27.9002507 299.63058,45.988741 299.986,64.98 C303.328905,62.7205041 306.820507,60.6892208 310.437,58.9 C313.889182,57.2105755 317.428101,55.7044818 321.039,54.388 L321.034,54.383 Z M90.94,203.25 C87.6581391,198.980931 83.5959419,195.373445 78.969,192.619 C75.1208285,190.352816 71.0279933,188.530498 66.769,187.187 C63.517961,186.14397 60.1561535,185.484496 56.752,185.222 C53.908,185.069 52.262,184.992 51.801,184.992 C51.1876667,184.992 49.499,185.068667 46.735,185.222 C43.370199,185.492556 40.0480608,186.151951 36.835,187.187 C32.5757068,188.529707 28.482784,190.352064 24.635,192.619 C20.007039,195.373605 15.9435568,198.981027 12.66,203.25 C8.64333527,208.498174 5.56462834,214.40151 3.56,220.699 C1.182,227.706333 -0.00466666667,236.373333 4.44090904e-16,246.7 L4.44090904e-16,305.172 L28.087,305.172 L28.087,246.7 C28.0953931,243.213389 28.4031906,239.733939 29.007,236.3 C29.572003,232.884214 30.741287,229.59647 32.46,226.591 C34.2026286,223.613198 36.65435,221.112353 39.597,219.311 C42.6636667,217.383667 46.7303333,216.420333 51.797,216.421 C56.8636667,216.421667 60.9303333,217.385 63.997,219.311 C66.9394706,221.112908 69.3913955,223.61361 71.135,226.591 C72.8496904,229.598316 74.0187121,232.885322 74.588,236.3 C75.1935099,239.733745 75.5019845,243.213285 75.51,246.7 L75.51,305.172 L103.601,305.172 L103.601,246.7 C103.601,236.38 102.411,227.713333 100.031,220.7 C98.0303103,214.402322 94.9545703,208.498498 90.94,203.25 L90.94,203.25 Z M230.37,231.677 C229.606397,226.219181 228.095916,220.892288 225.881,215.846 C224.006626,211.632247 221.608374,207.671672 218.743,204.058 C216.218016,200.900465 213.274227,198.102015 209.993,195.74 C207.065268,193.634542 203.943084,191.813603 200.669,190.302 C193.171948,187.045088 185.124081,185.243098 176.954,184.992 C167.402842,185.116536 158.015584,187.491101 149.554,191.923 C145.957615,193.92852 142.597598,196.331215 139.537,199.086 C136.048935,202.252488 133.094339,205.960759 130.787,210.068 C128.054412,214.966735 126.002195,220.215028 124.687,225.668 C123.052569,232.554037 122.279986,239.61646 122.387,246.693 C122.279487,253.772204 123.052073,260.837335 124.687,267.726 C125.989673,273.147064 128.042825,278.359712 130.787,283.213 C133.095925,287.250303 136.051887,290.881237 139.537,293.961 C142.619183,296.654492 145.976738,299.015541 149.554,301.005 C165.0654,308.74704 183.122962,309.586885 199.286,303.318 C202.400498,301.979839 205.403346,300.395486 208.266,298.58 C211.457654,296.551785 214.361735,294.103127 216.9,291.3 C219.756556,288.135466 222.229351,284.644619 224.267,280.9 C226.651054,276.470408 228.395074,271.725192 229.447,266.806 L199.516,266.806 C197.759885,270.904782 195.081355,274.542888 191.689,277.437 C188.155667,280.520333 183.243667,282.060333 176.953,282.057 C170.662333,282.053667 165.751,280.513667 162.219,277.437 C158.823399,274.545223 156.143422,270.906547 154.389,266.806 C153.330609,264.240955 152.55925,261.566687 152.089,258.832 C151.628333,256.138667 151.243667,253.48 150.935,250.856 L231.522,250.856 L231.522,246.7 C231.522,243.932 231.406333,241.313667 231.175,238.845 C230.943667,236.376333 230.675,233.987 230.369,231.677 L230.37,231.677 Z M152.55,231.677 C153.195799,229.116288 154.122066,226.634617 155.312,224.277 C156.552786,221.798388 158.185062,219.536027 160.146,217.577 C162.189951,215.543078 164.615774,213.933226 167.284,212.84 C173.52337,210.527969 180.38463,210.527969 186.624,212.84 C189.291194,213.933503 191.715983,215.543345 193.759,217.577 C195.709145,219.52001 197.306902,221.787051 198.481,224.277 C199.604844,226.676606 200.566665,229.148808 201.36,231.677 L152.55,231.677 L152.55,231.677 Z M283.9,275.584 C282.215029,274.696499 280.69603,273.524603 279.41,272.12 C278.20747,270.629924 277.344107,268.895689 276.88,267.038 L276.88,215.5 L303.355,215.5 L303.355,188 L276.876,188 L276.876,156.564 L248.785,156.564 L248.785,270.969 C248.785,278.978333 250.435333,285.255333 253.736,289.8 C256.61747,293.958556 260.343118,297.463064 264.67,300.085 C269.613827,302.919693 275.111418,304.653531 280.787,305.168 L308.878,305.168 L308.878,277.206 L291.378,277.206 C288.787604,277.314147 286.212801,276.755664 283.9,275.584 L283.9,275.584 Z M424.115,210.068 C421.807908,205.960593 418.853282,202.252284 415.365,199.086 C412.304158,196.332871 408.945328,193.930305 405.351,191.923 C396.964825,187.510611 387.657037,185.13613 378.182,184.992 C368.511333,184.992 360.299333,186.417333 353.546,189.268 C347.059841,191.918987 341.3266,196.126959 336.853,201.52 C332.287275,207.212997 329.02627,213.838439 327.3,220.929 C325.199426,229.432906 324.19329,238.170226 324.306,246.929 L324.306,344 L351.7,344 L351.7,291.727 C353.086477,293.703741 354.711779,295.501683 356.539,297.08 C360.031133,300.159995 363.995718,302.658541 368.281,304.48 C372.709608,306.166912 377.365953,307.180832 382.095,307.488 C390.94951,307.502748 399.663489,305.274454 407.424,301.011 C410.801599,299.04433 413.930974,296.679421 416.745,293.967 C419.963468,290.816532 422.680614,287.191872 424.802,283.219 C427.396381,278.33329 429.332855,273.125759 430.561,267.732 C432.114597,260.831401 432.848671,253.771609 432.748,246.699 C432.86026,239.61543 432.048075,232.547475 430.332,225.674 C428.946488,220.223383 426.855141,214.977028 424.111,210.068 L424.115,210.068 Z M403.515,257.789 C402.924347,261.707357 401.675767,265.497724 399.822,269 C397.942465,272.509025 395.2107,275.48907 391.878,277.666 C388.422,279.978 383.855333,281.134 378.178,281.134 C372.500667,281.134 367.934,279.978 364.478,277.666 C361.130422,275.471209 358.364782,272.497632 356.418,269 C354.49377,265.519132 353.206887,261.722487 352.618,257.789 C352.032759,254.12111 351.725883,250.414196 351.7,246.7 C351.698479,242.56536 351.969063,238.435102 352.51,234.336 C352.980695,230.45772 354.150614,226.696905 355.963,223.236 C357.786831,219.869392 360.544832,217.101668 363.905,215.266 C367.433,213.266 372.191667,212.266 378.181,212.266 C383.856333,212.266 388.423,213.422 391.881,215.734 C395.212417,217.910734 397.943935,220.889134 399.825,224.396 C401.675527,227.897914 402.921377,231.687193 403.51,235.604 C404.731339,242.948655 404.730325,250.444676 403.507,257.789 L403.515,257.789 Z M523.925,245.775 C523.915519,249.261474 523.608404,252.740774 523.007,256.175 C522.436387,259.589939 521.266732,262.87716 519.552,265.885 C517.812797,268.864487 515.361145,271.365618 512.417,273.164 C509.341,275.097333 505.274333,276.060667 500.217,276.054 C495.159667,276.047333 491.093,275.084 488.017,273.164 C485.070594,271.368463 482.618314,268.86669 480.882,265.885 C479.15923,262.88076 477.988733,259.592123 477.426,256.175 C476.821334,252.741143 476.512866,249.261677 476.504,245.775 L476.504,188 L448.4,188 L448.4,245.78 C448.4,256.102667 449.589333,264.769333 451.968,271.78 C453.971698,278.07785 457.047526,283.982546 461.06,289.234 C464.344174,293.500641 468.405938,297.107403 473.031,299.864 C476.878944,302.12959 480.971865,303.950604 485.231,305.292 C488.481181,306.335524 491.842424,306.994683 495.246,307.256 C498.083,307.41 499.74,307.492 500.199,307.492 C500.658,307.492 502.306,307.41 505.148,307.256 C508.551198,306.994305 511.912066,306.335154 515.162,305.292 C519.420851,303.949853 523.513688,302.128876 527.362,299.864 C531.986586,297.108304 536.047193,293.501364 539.329,289.234 C543.347229,283.984985 546.426057,278.079726 548.429,271.78 C550.807,264.773333 551.997667,256.106667 552.001,245.78 L552.001,188 L523.917,188 L523.917,245.78 L523.925,245.775 Z M589.315,193.08 C584.966299,195.717512 581.204516,199.218594 578.262,203.367 C574.881333,207.911 573.192667,214.189667 573.196,222.203 L573.196,305.168 L601.5,305.168 L601.5,226.127 C601.967426,224.269588 602.833464,222.536147 604.038,221.047 C605.324495,219.643646 606.841322,218.47043 608.523,217.578 C610.840384,216.411711 613.416865,215.855527 616.009,215.962 L637.653,215.962 L637.653,188 L605.422,188 C599.747085,188.512587 594.249959,190.24547 589.307,193.08 L589.315,193.08 Z M753,246.7 C753,243.932 752.886,241.313667 752.658,238.845 C752.428,236.38 752.152,233.993 751.852,231.681 C751.089971,226.222734 749.579081,220.895583 747.362,215.85 C745.488051,211.635809 743.089408,207.675142 740.223,204.062 C737.698896,200.905058 734.756513,198.106665 731.477,195.744 C728.548583,193.638509 725.425732,191.817571 722.151,190.306 C714.654494,187.049567 706.607374,185.247593 698.438,184.996 C688.886891,185.120911 679.499719,187.495455 671.038,191.927 C667.442118,193.931853 664.083024,196.334609 661.024,199.09 C657.535362,202.256207 654.580395,205.96452 652.273,210.072 C649.537888,214.969544 647.485532,220.218191 646.173,225.672 C644.53863,232.558048 643.766048,239.620463 643.873,246.697 C643.76556,253.776201 644.538145,260.841323 646.173,267.73 C647.472992,273.15191 649.526287,278.364923 652.273,283.217 C654.582018,287.254521 657.538347,290.885492 661.024,293.965 C664.104622,296.659104 667.461251,299.020208 671.038,301.009 C686.550118,308.75101 704.608273,309.590848 720.772,303.322 C723.886498,301.983839 726.889346,300.399486 729.752,298.584 C732.94057,296.552387 735.843847,294.10446 738.385,291.305 C741.241537,288.141131 743.713411,284.650163 745.749,280.905 C748.132375,276.474796 749.877316,271.729824 750.932,266.811 L721,266.811 C719.242089,270.90902 716.563447,274.546814 713.172,277.442 C709.638667,280.525333 704.727333,282.065333 698.438,282.062 C692.136,282.062 687.221667,280.522 683.695,277.442 C680.303488,274.54802 677.626239,270.909795 675.872,266.811 C674.813663,264.245936 674.042306,261.571674 673.572,258.837 C673.112667,256.143667 672.728667,253.485 672.42,250.861 L753,250.861 L753,246.7 L753,246.7 Z M674.032,231.681 C674.676902,229.120009 675.603205,226.638241 676.794,224.281 C678.035104,221.803089 679.666597,219.540878 681.626,217.581 C683.669803,215.545955 686.096515,213.935964 688.766,212.844 C695.00537,210.531969 701.86663,210.531969 708.106,212.844 C710.773318,213.937269 713.19815,215.54714 715.241,217.581 C717.189935,219.524367 718.786648,221.791368 719.96,224.281 C721.083416,226.680789 722.045225,229.152963 722.839,231.681 L674.033,231.681 L674.032,231.681 Z" id="::_logo"></path>
            </g>
        </g>
    </g>
</svg>