<svg id="::_case_studies" data-name=":: case studies" xmlns="http://www.w3.org/2000/svg" width="432" height="436" viewBox="0 0 432 436">
  <defs>
    <style>
      .cls-1 {
        fill: #fff;
        fill-rule: evenodd;
      }
    </style>
  </defs>
  <g id="::_jtc" data-name=":: jtc">
    <path id="::_logo" data-name=":: logo" class="cls-1" d="M288.963,52.24c2.72-1.012,4.887.334,6.127,3.7,2.79,7.564,3.019,57.185-13.146,74.667a1.657,1.657,0,0,1-.763.521,1.353,1.353,0,0,1-1.8-1c-6.463-24.6-1.094-73.909,9.58-77.881h0ZM3.456,381.617a59.774,59.774,0,0,1,5.935-1.971,0.965,0.965,0,0,1,1.441.667c0.146,15.232-2.117,40.692.364,47.415,1.861,5.042,9.411,4.864,9.485.535,0.1-7.449,2-37.781,1.839-51.109-0.1-.918.033-1.206,1.081-1.6a31.417,31.417,0,0,0,4.576-2.416c5.061-3.076,2.238-9.435-1.037-7.979-8.217,3.533-17.948,6.2-24.546,9.609-3.821,1.895-3.407,8.192.863,6.845h0ZM272.4,333.679c-2.93,1.093-5.512-.1-6.8-4.877-4.9-17.773-1.678-78.706,10.671-83.3,2.72-1.013,5.251.674,6.723,4.668a31.8,31.8,0,0,1,1.549,10.656c-0.138,29.916-1.108,32.431-1.67,41.241-1.026,14-3.358,28.965-10.47,31.612h0Zm63.9-62.949c-0.245,22.549-2.283,48.635-9.606,51.36-2.724,1.018-5.1-.255-6.26-3.406-3.647-9.878,7.059-55.674,1.011-72.059-6.359-17.231-20.988-17.524-26.754-14.427-2.225,1.067-3.983,3.4-5.224,6.485-0.526,1.153-2.12,1.983-2.955.381-4.67-8.777-11.5-12.45-19.893-10.045-26.659,7.765-40.623,51.19-42,88.741-2.106,51.68-20.122,68.657-34.528,70.909-21.44,3.193-29.4-28.021-29.511-78.634-0.115-37.711,7.5-59.659,19.428-64.1,7.955-2.958,14.7,8.872,10.083,14.414-21.131,25.3-11.729,59.8,10.343,54.457,19.408-4.834,21.324-34.458,9.008-58.785-0.9-1.818-.667-3.1.361-4.2,11.881-12.305,25.184-20.123,41.3-26.12,29.1-10.821,57.649-1.843,83.632,2.111,1.777,0.3,2.5.982,2.5,2.9ZM185.685,90.414c3.349-1.246,5.877.444,7.735,5.484,2.949,7.986,3.6,23.277,4.258,54.1,0.067,4.038.262,7.788,0.166,11.407-12.677-5.321-20.6-22.923-19.667-48.121,0.578-14.554,2.9-21.152,7.508-22.867h0Zm4.341,120.737c-3.349,1.245-5.879-.444-7.743-5.487-2.637-7.143-3.886-21.495-4.076-46.513-0.017-2.624,1.237-3.091,2.569-1.435,4.206,5.6,9.521,10.317,15.863,12.022a2.244,2.244,0,0,1,1.351,2.366c-0.105,26.8-2.106,36.862-7.964,39.047h0ZM64.217,412.068c0.064-8.867,3.777-50.391,2.145-54.8s-6.434-4.538-9.155-3.522c-2.927,1.09-3.255,4.078-3.564,9.686-0.37,6.113-.56,15.264-0.6,24.835a2.11,2.11,0,0,1-1.207,1.887l-5.025,1.867c-1.044.39-1.147-.528-1.039-1.526,0.388-11.85.849-23.494,0.077-25.594-1.634-4.416-6.439-4.534-9.157-3.521s-3.054,4-3.36,9.606c-0.777,12.722-1.463,41.168,1.095,48.1,1.863,5.043,9.413,4.864,9.48.537l0.775-17.254a1.953,1.953,0,0,1,1.21-1.884l5.6-1.6c0.838-.313,1.7.083,1.745,1.5,0.372,4.88.934,8.975,1.711,11.071,1.855,5.047,9.408,4.862,9.267.615h0Zm17.634-5.125a68.081,68.081,0,0,0,12.479-4.877c3.274-1.458,2.233-9.434-1.039-7.979a60.514,60.514,0,0,1-8.581,3.189c-0.838.316-1.2-.029-1.224-0.735L84.141,382.2a1.234,1.234,0,0,1,.948-1.311c2.718-1.01,5.438-2.023,8.082-3.24,3.275-1.461,2.31-9.227-1.036-7.979l-6.072,2.257a0.8,0.8,0,0,1-1.227-.738l0.381-18.305c0.058-.5.165-1.5,0.793-1.733l7.956-2.958c3.349-1.242,2.178-8.933-1.092-7.475-7.807,3.375-13.741,5.351-16.669,6.438-3.981,1.48-3.8,7.148-3.986,9.847-0.783,12.716-1.568,40.251.992,47.18,0.7,1.891,2.674,4.027,8.639,2.762h0Zm59.633-224.1a98.252,98.252,0,0,0,4,14.045c7.213,19.541,24.8,32.355,47.615,23.869,23.448-8.719,37.759-33.157,41.544-59.659,0.27-2.489,8.7-12.554,9.115-12.708s0.993,0.106,1.384,1.157c0.929,2.522,1.516,5.41,2.528,8.14,7.831,21.224,23.3,34.106,46.541,25.465,20.513-7.632,30.315-29.436,39.078-52.774A1.942,1.942,0,0,1,334.442,129q0.628-.236,1.095,1.025c1.32,3.572,1.38,7.61,2.621,10.972,4.579,12.4,14.662,20.357,29.313,14.906,11.094-4.124,17.429-13.411,20.96-28.346a2.872,2.872,0,0,1,1.342-2.171,1.128,1.128,0,0,1,1.511.871,2.874,2.874,0,0,1,.256,1.337c-0.22,36.169-.215,68.427-14.124,83.633a2.774,2.774,0,0,1-1.174.677,0.818,0.818,0,0,1-1.15-.529,1.642,1.642,0,0,1-.1-0.918c-0.1-9.283,1.27-25.566.11-28.717-5.124-13.865-20.825-14.479-26.895-12.222-6.489,2.413-8.923,3.559-9.287,16.118l-0.957,30.943a1.138,1.138,0,0,1-.73,1.23,1.9,1.9,0,0,1-1.491-.165c-24.6-11.159-53.242-35.874-90.923-21.859-21.771,8.1-34.126,27.51-41.185,49.013a1.95,1.95,0,0,1-1.02,1.1,1.628,1.628,0,0,1-1.935-.716c-6.811-9.414-17.17-12.972-31.609-7.6C119.248,256.11,105,346.485,124.083,398.168c10.006,27.106,29.431,44.255,57.691,33.74,23.443-8.717,38.2-34.521,45.517-74.038a2.1,2.1,0,0,1,1.208-1.884c0.628-.233,1.491.162,1.951,1.424,5.618,13.921,16.013,22.721,30.035,17.5,10.679-3.973,18.121-16.058,22.766-35.707a1.62,1.62,0,0,1,.946-1.309,1.053,1.053,0,0,1,1.436.66c5.427,14.711,13.581,21.955,29.07,16.192,12.14-4.516,19.034-16.157,23.03-29.835a2.842,2.842,0,0,1,1.207-1.884c0.632-.229,1.28.244,1.669,1.3,3.8,10.293,13.029,15.946,28.94,10.028,21.352-7.944,29.594-38.492,25.406-49.839-1.32-3.572-3.847-5.256-7.4-3.937-8.584,3.193.824,29.328-8.805,32.9-2.092.785-4.6-.2-5.761-3.348-3.487-9.456.331-51.976,1.817-84.071a5.94,5.94,0,0,1,2.679-4.344C427.016,196.6,430.4,138.71,431.86,93c0.746-24.411-2.741-68.04-5.767-76.234C419.734-.46,404.661-1.309,398.588.951,392.1,3.367,392.86,9.3,392.836,21.49c-0.306,39.783-.188,96.851-14.632,102.225-2.723,1.013-5.1-.258-6.257-3.408-4.579-12.4,7.2-72.7,1.075-89.3-4.19-11.345-19.5-12.822-26.192-10.331-9.632,3.582-7.658,26.983-10.084,60.386-2.9,38.593-17.724,62.27-34.263,68.423-7.952,2.957-15.808.382-18.524-6.973-0.465-1.26.011-1.914,1.111-2.8,34.172-19.64,44.278-58.048,35.9-80.74-6.67-18.067-21.112-21.063-37.646-14.913-48.147,17.908-35.139,86.671-44.884,99.615a3.808,3.808,0,0,1-.89.81,0.737,0.737,0,0,1-1.146-.529,2.436,2.436,0,0,1-.183-1.13c-0.215-12.825-2.094-25.028-5.9-35.321-7.991-21.643-24.037-34.792-48.314-25.762-25.329,9.422-38.549,34.887-42.37,62.593-1.772,12.612-4.735,23.272-10.053,33.374-0.791,1.73-3.567,3.237-3.674-2.219-0.581-32.522-2.425-69.114,1.486-93.988A14.206,14.206,0,0,0,126.9,75c-4.188-11.344-26.945-11.721-39.719-6.973C83,69.582,79.83,71.956,78.9,73.971,73.879,84.205,62,94.6,49.616,106.849c-23.185,22.963-50.662,61.38-37.4,97.309,6.67,18.07,22.17,25.211,38.161,17.59,8.272-4.03,9.882-8.694,7.781-18.906-6.34-29.423-7.652-75.533,16.738-104.917,2.652-3.135,4.681-1.5,4.432,1.7-1.607,24.014-3.335,85.117-4.526,130.247A5.355,5.355,0,0,1,71.99,234.5c-25.7,17.445-61.431,41.247-48.71,75.7,7.911,21.434,29.114,24.06,51.723,15.649,27.837-10.357,36.924-41.214,44.492-79.393a319.99,319.99,0,0,0,5.863-42.8,10.919,10.919,0,0,1,2.8-7.259,78.639,78.639,0,0,0,9.752-14.855c1.525-2.958,2.6-2.638,3.575,1.3h0Zm-67.738,83.5c-0.934,38.1-1.32,49.954-9.945,51.73-6.957,1.152-9.984-13.5-9.458-27.549,0.695-17.458,6.553-32.547,16.784-43.52,1.025-1.095,3.173-2.374,3.109.042Z"/>
  </g>
</svg>
