<?xml version="1.0" encoding="UTF-8" standalone="no"?>
<svg width="432px" height="436px" viewBox="0 0 432 436" version="1.1" xmlns="http://www.w3.org/2000/svg" xmlns:xlink="http://www.w3.org/1999/xlink">
    <!-- Generator: Sketch 39.1 (31720) - http://www.bohemiancoding.com/sketch -->
    <title>img-case-logo-jtc</title>
    <desc>Created with Sketch.</desc>
    <defs></defs>
    <g id="Page-1" stroke="none" stroke-width="1" fill="none" fill-rule="evenodd">
        <g id="img-case-logo-jtc" transform="translate(-1.000000, 0.000000)" fill="#FFFFFF">
            <g id="::_jtc">
                <path d="M289.963,52.24 C292.683,51.228 294.85,52.574 296.09,55.94 C298.88,63.504 299.109,113.125 282.944,130.607 C282.744206,130.849494 282.479585,131.030185 282.181,131.128 C281.80987,131.26671 281.396589,131.235776 281.050244,131.043362 C280.703898,130.850947 280.459296,130.516392 280.381,130.128 C273.918,105.528 279.287,56.219 289.961,52.247 L289.961,52.247 L289.963,52.24 Z M4.456,381.617 C6.39858592,380.85689 8.3796298,380.19899 10.391,379.646 C10.6640643,379.485014 10.9987772,379.4684 11.2864419,379.601552 C11.5741066,379.734704 11.7780342,380.000641 11.832,380.313 C11.978,395.545 9.715,421.005 12.196,427.728 C14.057,432.77 21.607,432.592 21.681,428.263 C21.781,420.814 23.681,390.482 23.52,377.154 C23.42,376.236 23.553,375.948 24.601,375.554 C26.1901735,374.875868 27.720697,374.067794 29.177,373.138 C34.238,370.062 31.415,363.703 28.14,365.159 C19.923,368.692 10.192,371.359 3.594,374.768 C-0.227,376.663 0.187,382.96 4.457,381.613 L4.457,381.613 L4.456,381.617 Z M273.4,333.679 C270.47,334.772 267.888,333.579 266.6,328.802 C261.7,311.029 264.922,250.096 277.271,245.502 C279.991,244.489 282.522,246.176 283.994,250.17 C285.112334,253.608119 285.636176,257.211771 285.543,260.826 C285.405,290.742 284.435,293.257 283.873,302.067 C282.847,316.067 280.515,331.032 273.403,333.679 L273.403,333.679 L273.4,333.679 Z M337.3,270.73 C337.055,293.279 335.017,319.365 327.694,322.09 C324.97,323.108 322.594,321.835 321.434,318.684 C317.787,308.806 328.493,263.01 322.445,246.625 C316.086,229.394 301.457,229.101 295.691,232.198 C293.466,233.265 291.708,235.598 290.467,238.683 C289.941,239.836 288.347,240.666 287.512,239.064 C282.842,230.287 276.012,226.614 267.619,229.019 C240.96,236.784 226.996,280.209 225.619,317.76 C223.513,369.44 205.497,386.417 191.091,388.669 C169.651,391.862 161.691,360.648 161.58,310.035 C161.465,272.324 169.08,250.376 181.008,245.935 C188.963,242.977 195.708,254.807 191.091,260.349 C169.96,285.649 179.362,320.149 201.434,314.806 C220.842,309.972 222.758,280.348 210.442,256.021 C209.542,254.203 209.775,252.921 210.803,251.821 C222.684,239.516 235.987,231.698 252.103,225.701 C281.203,214.88 309.752,223.858 335.735,227.812 C337.512,228.112 338.235,228.794 338.235,230.712 L337.3,270.73 Z M186.685,90.414 C190.034,89.168 192.562,90.858 194.42,95.898 C197.369,103.884 198.02,119.175 198.678,149.998 C198.745,154.036 198.94,157.786 198.844,161.405 C186.167,156.084 178.244,138.482 179.177,113.284 C179.755,98.73 182.077,92.132 186.685,90.417 L186.685,90.417 L186.685,90.414 Z M191.026,211.151 C187.677,212.396 185.147,210.707 183.283,205.664 C180.646,198.521 179.397,184.169 179.207,159.151 C179.19,156.527 180.444,156.06 181.776,157.716 C185.982,163.316 191.297,168.033 197.639,169.738 C198.571367,170.131754 199.12476,171.100909 198.99,172.104 C198.885,198.904 196.884,208.966 191.026,211.151 L191.026,211.151 L191.026,211.151 Z M65.217,412.068 C65.281,403.201 68.994,361.677 67.362,357.268 C65.73,352.859 60.928,352.73 58.207,353.746 C55.28,354.836 54.952,357.824 54.643,363.432 C54.273,369.545 54.083,378.696 54.043,388.267 C54.0353168,389.075268 53.5665598,389.808113 52.836,390.154 L47.811,392.021 C46.767,392.411 46.664,391.493 46.772,390.495 C47.16,378.645 47.621,367.001 46.849,364.901 C45.215,360.485 40.41,360.367 37.692,361.38 C34.974,362.393 34.638,365.38 34.332,370.986 C33.555,383.708 32.869,412.154 35.427,419.086 C37.29,424.129 44.84,423.95 44.907,419.623 L45.682,402.369 C45.6495566,401.549182 46.1329705,400.796494 46.892,400.485 L52.492,398.885 C53.33,398.572 54.192,398.968 54.237,400.385 C54.609,405.265 55.171,409.36 55.948,411.456 C57.803,416.503 65.356,416.318 65.215,412.071 L65.215,412.071 L65.217,412.068 Z M82.851,406.943 C87.1609013,405.731589 91.3408036,404.098014 95.33,402.066 C98.604,400.608 97.563,392.632 94.291,394.087 C91.5152889,395.365138 88.6467498,396.431187 85.71,397.276 C84.872,397.592 84.51,397.247 84.486,396.541 L85.141,382.2 C85.0864953,381.587915 85.4906535,381.029 86.089,380.889 C88.807,379.879 91.527,378.866 94.171,377.649 C97.446,376.188 96.481,368.422 93.135,369.67 L87.063,371.927 C86.8070949,372.089843 86.4811042,372.093953 86.2211746,371.937614 C85.9612451,371.781275 85.812089,371.49138 85.836,371.189 L86.217,352.884 C86.275,352.384 86.382,351.384 87.01,351.151 L94.966,348.193 C98.315,346.951 97.144,339.26 93.874,340.718 C86.067,344.093 80.133,346.069 77.205,347.156 C73.224,348.636 73.405,354.304 73.219,357.003 C72.436,369.719 71.651,397.254 74.211,404.183 C74.911,406.074 76.885,408.21 82.85,406.945 L82.85,406.945 L82.851,406.943 Z M142.484,182.843 C143.46708,187.61741 144.804106,192.312041 146.484,196.888 C153.697,216.429 171.284,229.243 194.099,220.757 C217.547,212.038 231.858,187.6 235.643,161.098 C235.913,158.609 244.343,148.544 244.758,148.39 C245.173,148.236 245.751,148.496 246.142,149.547 C247.071,152.069 247.658,154.957 248.67,157.687 C256.501,178.911 271.97,191.793 295.211,183.152 C315.724,175.52 325.526,153.716 334.289,130.378 C334.42496,129.757802 334.855511,129.243231 335.442,129 C335.860667,128.842667 336.225667,129.184333 336.537,130.025 C337.857,133.597 337.917,137.635 339.158,140.997 C343.737,153.397 353.82,161.354 368.471,155.903 C379.565,151.779 385.9,142.492 389.431,127.557 C389.514543,126.663398 390.011021,125.860227 390.773,125.386 C391.089033,125.266768 391.441866,125.295437 391.734505,125.464126 C392.027143,125.632814 392.228786,125.923767 392.284,126.257 C392.475171,126.675735 392.562967,127.134263 392.54,127.594 C392.32,163.763 392.325,196.021 378.416,211.227 C378.086657,211.546257 377.683286,211.778865 377.242,211.904 C377.021552,212.011464 376.764519,212.014349 376.541715,211.911859 C376.318911,211.809369 376.153847,211.61232 376.092,211.375 C375.971537,211.084866 375.936831,210.766266 375.992,210.457 C375.892,201.174 377.262,184.891 376.102,181.74 C370.978,167.875 355.277,167.261 349.207,169.518 C342.718,171.931 340.284,173.077 339.92,185.636 L338.963,216.579 C339.039921,217.109798 338.735781,217.622253 338.233,217.809 C337.734406,217.96083 337.195332,217.901174 336.742,217.644 C312.142,206.485 283.5,181.77 245.819,195.785 C224.048,203.885 211.693,223.295 204.634,244.798 C204.454283,245.28601 204.087078,245.682016 203.614,245.898 C202.880792,246.150685 202.071128,245.851088 201.679,245.182 C194.868,235.768 184.509,232.21 170.07,237.582 C120.248,256.11 106,346.485 125.083,398.168 C135.089,425.274 154.514,442.423 182.774,431.908 C206.217,423.191 220.974,397.387 228.291,357.87 C228.297609,357.061876 228.767364,356.329245 229.499,355.986 C230.127,355.753 230.99,356.148 231.45,357.41 C237.068,371.331 247.463,380.131 261.485,374.91 C272.164,370.937 279.606,358.852 284.251,339.203 C284.310846,338.629382 284.671141,338.130835 285.197,337.894 C285.473424,337.771253 285.789282,337.773293 286.064097,337.899601 C286.338912,338.025908 286.546147,338.264287 286.633,338.554 C292.06,353.265 300.214,360.509 315.703,354.746 C327.843,350.23 334.737,338.589 338.733,324.911 C338.8608,324.144379 339.296983,323.463543 339.94,323.027 C340.572,322.798 341.22,323.271 341.609,324.327 C345.409,334.62 354.638,340.273 370.549,334.355 C391.901,326.411 400.143,295.863 395.955,284.516 C394.635,280.944 392.108,279.26 388.555,280.579 C379.971,283.772 389.379,309.907 379.75,313.479 C377.658,314.264 375.15,313.279 373.989,310.131 C370.502,300.675 374.32,258.155 375.806,226.06 C375.999727,224.282608 376.983745,222.687023 378.485,221.716 C428.016,196.6 431.4,138.71 432.86,93 C433.606,68.589 430.119,24.96 427.093,16.766 C420.734,-0.46 405.661,-1.309 399.588,0.951 C393.1,3.367 393.86,9.3 393.836,21.49 C393.53,61.273 393.648,118.341 379.204,123.715 C376.481,124.728 374.104,123.457 372.947,120.307 C368.368,107.907 380.147,47.607 374.022,31.007 C369.832,19.662 354.522,18.185 347.83,20.676 C338.198,24.258 340.172,47.659 337.746,81.062 C334.846,119.655 320.022,143.332 303.483,149.485 C295.531,152.442 287.675,149.867 284.959,142.512 C284.494,141.252 284.97,140.598 286.07,139.712 C320.242,120.072 330.348,81.664 321.97,58.972 C315.3,40.905 300.858,37.909 284.324,44.059 C236.177,61.967 249.185,130.73 239.44,143.674 C239.188141,143.989466 238.887724,144.26288 238.55,144.484 C238.336197,144.6289 238.062143,144.651307 237.827643,144.543061 C237.593142,144.434814 237.432417,144.211711 237.404,143.955 C237.254108,143.598217 237.191376,143.210855 237.221,142.825 C237.006,130 235.127,117.797 231.321,107.504 C223.33,85.861 207.284,72.712 183.007,81.742 C157.678,91.164 144.458,116.629 140.637,144.335 C138.865,156.947 135.902,167.607 130.584,177.709 C129.793,179.439 127.017,180.946 126.91,175.49 C126.329,142.968 124.485,106.376 128.396,81.502 C128.737061,79.3255263 128.567255,77.0995552 127.9,75 C123.712,63.656 100.955,63.279 88.181,68.027 C84,69.582 80.83,71.956 79.9,73.971 C74.879,84.205 63,94.6 50.616,106.849 C27.431,129.812 -0.046,168.229 13.216,204.158 C19.886,222.228 35.386,229.369 51.377,221.748 C59.649,217.718 61.259,213.054 59.158,202.842 C52.818,173.419 51.506,127.309 75.896,97.925 C78.548,94.79 80.577,96.425 80.328,99.625 C78.721,123.639 76.993,184.742 75.802,229.872 C75.7712271,231.809867 74.6957647,233.579867 72.99,234.5 C47.29,251.945 11.559,275.747 24.28,310.2 C32.191,331.634 53.394,334.26 76.003,325.849 C103.84,315.492 112.927,284.635 120.495,246.456 C123.411225,232.337693 125.370021,218.038449 126.358,203.656 C126.368367,200.974612 127.365021,198.390785 129.158,196.397 C132.959485,191.829693 136.231033,186.846217 138.91,181.542 C140.435,178.584 141.51,178.904 142.485,182.842 L142.485,182.842 L142.484,182.843 Z M74.746,266.343 C73.812,304.443 73.426,316.297 64.801,318.073 C57.844,319.225 54.817,304.573 55.343,290.524 C56.038,273.066 61.896,257.977 72.127,247.004 C73.152,245.909 75.3,244.63 75.236,247.046 L74.746,266.343 Z" id="::_logo"></path>
            </g>
        </g>
    </g>
</svg>