<svg id="::_case_studies" data-name=":: case studies" xmlns="http://www.w3.org/2000/svg" width="753" height="344" viewBox="0 0 753 344">
  <defs>
    <style>
      .cls-1 {
        fill: #fff;
        fill-rule: evenodd;
      }
    </style>
  </defs>
  <g id="::_netpure" data-name=":: netpure">
    <path id="::_logo" data-name=":: logo" class="cls-1" d="M397.266,112.512l-0.037-.01c-0.525-.124-1.054-0.249-1.583-0.348a113.029,113.029,0,0,0-19.009-2.19l-0.487,44.759c1.112-.409,2.389-0.946,3.873-1.657,0.262-.51.52-1.008,0.773-1.525,3.773-7.562,7.387-15.6,11.053-24.579C393.586,122.7,395.314,118.085,397.266,112.512Zm-48.675-.372c-0.573.108-1.131,0.24-1.686,0.372H346.9c1.956,5.583,3.684,10.2,5.414,14.446,3.668,8.978,7.285,17.017,11.051,24.571,0.117,0.242.244,0.479,0.365,0.726,1.6,0.909,3.006,1.65,4.165,2.181l-0.485-44.476A113.776,113.776,0,0,0,348.591,112.14Zm58.539,3.008c-2.191,5.266-4.583,10.494-7.121,15.544-2.7,5.413-5.706,10.8-8.918,16.1,0.946-.6,1.877-1.185,2.893-1.859a144.957,144.957,0,0,0,26.855-24.038c-0.951-.5-1.845-1.015-2.852-1.494A103.737,103.737,0,0,0,407.13,115.148Zm-70.1,0a102.976,102.976,0,0,0-10.815,4.24c-0.548.26-1.023,0.549-1.552,0.817a164.994,164.994,0,0,0,27.19,24.545c-2.754-4.642-5.345-9.339-7.7-14.065C341.615,125.627,339.223,120.4,337.034,115.152Zm-3.261-53.63c0.85,4.906,1.8,9.831,2.7,14.446,1.786,8.311,4.068,16.989,6.772,25.772l0.1,0.292a109.514,109.514,0,0,1,23.943-3.711l-0.445-40.836a169.316,169.316,0,0,0-24.2,2.265C339.953,60.178,337.118,60.741,333.773,61.522Zm-0.63,43.654a204.839,204.839,0,0,1-7.884-26.764c-1.053-4.653-1.976-9.277-2.741-13.758-3.041.984-5.721,1.944-8.172,2.921a93.222,93.222,0,0,0-13.633,6.96c0.264,1.885.58,3.781,1,5.7,2.524,11.521,9.153,22.817,16.946,32.775,1.042-.682,2.039-1.391,3.137-2.03a85.394,85.394,0,0,1,11.428-5.579Zm88.5-40.529c-0.763,4.476-1.681,9.1-2.743,13.769a204.416,204.416,0,0,1-7.885,26.774l-0.065.166a85.642,85.642,0,0,1,11.489,5.605c1.475,0.86,2.842,1.8,4.213,2.725,7.468-9.916,13.695-21.349,15.825-33.456,0.346-1.964.594-3.9,0.791-5.827a93.006,93.006,0,0,0-13.4-6.818C427.412,66.606,424.781,65.662,421.644,64.647Zm-20.721,37.089c2.7-8.77,4.981-17.445,6.774-25.782,0.894-4.6,1.845-9.526,2.692-14.437-3.305-.77-6.124-1.33-8.792-1.748A167.652,167.652,0,0,0,377.21,57.49l-0.447,40.817a109.336,109.336,0,0,1,24.07,3.7Zm-68.807-50.92a154.481,154.481,0,0,1,34.6-4.977l-0.5-45.827Q361.99,0.276,357.969.9a49.5,49.5,0,0,0-12.948,4.841,25.91,25.91,0,0,0-13.034,18.572c-1.685,7.929-.978,16.514-0.03,25.354C332,50.041,332.06,50.429,332.116,50.816Zm91.415,0.091c-0.108,1.058-.239,2.1-0.365,3.156l-0.038.285a110.944,110.944,0,0,1,10.674,4.54A89.115,89.115,0,0,1,443.69,64.6c-0.43-19.479-8.445-36.407-22.172-48.071,0.135,0.319.248,0.594,0.388,0.94C425.96,27.272,424.439,42.069,423.531,50.908Zm-11.326-1.255c0.946-8.819,1.653-17.4-.028-25.309A25.939,25.939,0,0,0,399.148,5.75,49.6,49.6,0,0,0,386.072.879Q382.061,0.256,377.837,0l-0.5,45.832a154.4,154.4,0,0,1,34.709,4.951C412.1,50.407,412.159,50.032,412.205,49.653Zm-91.166,4.735L321,54.083c-0.136-1.053-.267-2.11-0.373-3.177-0.849-8.245-2.434-23.6,1.618-33.432,0.222-.543.416-1.009,0.62-1.494a61.459,61.459,0,0,0-22.879,49A89.668,89.668,0,0,1,310.437,58.9,109.26,109.26,0,0,1,321.039,54.388ZM90.94,203.25a42.559,42.559,0,0,0-11.971-10.631,59.049,59.049,0,0,0-12.2-5.432,43.817,43.817,0,0,0-10.017-1.965c-2.844-.153-4.49-0.23-4.951-0.23q-0.92,0-5.066.23a43.714,43.714,0,0,0-9.9,1.965,58.951,58.951,0,0,0-12.2,5.432A42.588,42.588,0,0,0,12.66,203.25a57.314,57.314,0,0,0-9.1,17.449Q-0.007,231.21,0,246.7v58.472H28.087V246.7a60.9,60.9,0,0,1,.92-10.4,29.136,29.136,0,0,1,3.453-9.709,20.931,20.931,0,0,1,7.137-7.28q4.6-2.891,12.2-2.89t12.2,2.89a20.952,20.952,0,0,1,7.138,7.28,29.344,29.344,0,0,1,3.453,9.709,60.69,60.69,0,0,1,.922,10.4v58.472h28.091V246.7q0-15.48-3.57-26A57.256,57.256,0,0,0,90.94,203.25Zm139.43,28.427a60.114,60.114,0,0,0-4.489-15.831,54.858,54.858,0,0,0-7.138-11.788,44.469,44.469,0,0,0-8.75-8.318,56.62,56.62,0,0,0-9.324-5.438,64.49,64.49,0,0,0-23.715-5.31,60.762,60.762,0,0,0-27.4,6.931,55.051,55.051,0,0,0-10.017,7.163,43.817,43.817,0,0,0-8.75,10.982,61.737,61.737,0,0,0-6.1,15.6,85.447,85.447,0,0,0-2.3,21.025,85.463,85.463,0,0,0,2.3,21.033,59.9,59.9,0,0,0,6.1,15.487,42.5,42.5,0,0,0,8.75,10.748,58.239,58.239,0,0,0,10.017,7.044,61.535,61.535,0,0,0,49.732,2.313,63.773,63.773,0,0,0,8.98-4.738A42.134,42.134,0,0,0,216.9,291.3a54.141,54.141,0,0,0,7.367-10.4,53.222,53.222,0,0,0,5.18-14.094H199.516a28.972,28.972,0,0,1-7.827,10.631q-5.3,4.625-14.736,4.62t-14.734-4.62a28.891,28.891,0,0,1-7.83-10.631,37.621,37.621,0,0,1-2.3-7.974q-0.691-4.04-1.154-7.976h80.587V246.7q0-4.152-.347-7.855T230.369,231.677Zm-77.82,0a35.915,35.915,0,0,1,2.762-7.4,25.788,25.788,0,0,1,4.834-6.7,21.88,21.88,0,0,1,7.138-4.737,27.83,27.83,0,0,1,19.34,0,21.877,21.877,0,0,1,7.135,4.737,23.767,23.767,0,0,1,4.722,6.7,59.327,59.327,0,0,1,2.879,7.4h-48.81ZM283.9,275.584a16.536,16.536,0,0,1-4.49-3.464,13.178,13.178,0,0,1-2.53-5.082V215.5h26.475V188H276.876V156.564H248.785V270.969q0,12.014,4.951,18.831a36,36,0,0,0,10.934,10.285,39.586,39.586,0,0,0,16.117,5.083h28.091V277.206h-17.5A15.149,15.149,0,0,1,283.9,275.584Zm140.215-65.516a43.8,43.8,0,0,0-8.75-10.982,55.276,55.276,0,0,0-10.014-7.163,60.319,60.319,0,0,0-27.169-6.931q-14.506,0-24.636,4.276a42.657,42.657,0,0,0-16.693,12.252,49.883,49.883,0,0,0-9.553,19.409,102.9,102.9,0,0,0-2.994,26V344H351.7V291.727a29.325,29.325,0,0,0,4.839,5.353,43.443,43.443,0,0,0,11.742,7.4,47.447,47.447,0,0,0,13.814,3.008,52.423,52.423,0,0,0,25.329-6.477,48.851,48.851,0,0,0,9.321-7.044,44.123,44.123,0,0,0,8.057-10.748,62.706,62.706,0,0,0,5.759-15.487,89.933,89.933,0,0,0,2.187-21.033,81.468,81.468,0,0,0-2.416-21.025A64.6,64.6,0,0,0,424.111,210.068Zm-20.6,47.721A35.171,35.171,0,0,1,399.822,269a23.739,23.739,0,0,1-7.944,8.666q-5.184,3.468-13.7,3.468t-13.7-3.468a24.764,24.764,0,0,1-8.06-8.666,33.392,33.392,0,0,1-3.8-11.211A73.634,73.634,0,0,1,351.7,246.7a94.239,94.239,0,0,1,.81-12.364,32.321,32.321,0,0,1,3.453-11.1,19.863,19.863,0,0,1,7.942-7.97q5.292-3,14.276-3,8.513,0,13.7,3.468a23.767,23.767,0,0,1,7.944,8.662,35.179,35.179,0,0,1,3.685,11.208A67.567,67.567,0,0,1,403.507,257.789Zm120.41-12.014a61.257,61.257,0,0,1-.918,10.4,29.384,29.384,0,0,1-3.455,9.71,20.841,20.841,0,0,1-7.135,7.279q-4.614,2.9-12.2,2.89t-12.2-2.89a20.755,20.755,0,0,1-7.135-7.279,28.988,28.988,0,0,1-3.456-9.71,60.862,60.862,0,0,1-.922-10.4V188H448.4v57.78q0,15.484,3.568,26a57.424,57.424,0,0,0,9.092,17.454,42.684,42.684,0,0,0,11.971,10.63,58.946,58.946,0,0,0,12.2,5.428,43.706,43.706,0,0,0,10.015,1.964c2.837,0.154,4.494.236,4.953,0.236s2.107-.082,4.949-0.236a43.739,43.739,0,0,0,10.014-1.964,59.039,59.039,0,0,0,12.2-5.428,42.617,42.617,0,0,0,11.967-10.63,57.252,57.252,0,0,0,9.1-17.454q3.567-10.51,3.572-26V188H523.917v57.78Zm65.39-52.695a37.207,37.207,0,0,0-11.053,10.287q-5.071,6.816-5.066,18.836v82.965H601.5V226.127a13.2,13.2,0,0,1,2.538-5.08,16.712,16.712,0,0,1,4.485-3.469,15.259,15.259,0,0,1,7.486-1.616h21.644V188H605.422A39.546,39.546,0,0,0,589.307,193.08ZM753,246.7q0-4.152-.342-7.855c-0.23-2.465-.506-4.852-0.806-7.164a59.962,59.962,0,0,0-4.49-15.831,54.78,54.78,0,0,0-7.139-11.788,44.507,44.507,0,0,0-8.746-8.318,56.635,56.635,0,0,0-9.326-5.438,64.5,64.5,0,0,0-23.713-5.31,60.772,60.772,0,0,0-27.4,6.931,54.931,54.931,0,0,0-10.014,7.163,43.8,43.8,0,0,0-8.751,10.982,61.514,61.514,0,0,0-6.1,15.6,85.453,85.453,0,0,0-2.3,21.025,85.47,85.47,0,0,0,2.3,21.033,59.686,59.686,0,0,0,6.1,15.487,42.486,42.486,0,0,0,8.751,10.748,58.105,58.105,0,0,0,10.014,7.044,61.54,61.54,0,0,0,49.734,2.313,63.773,63.773,0,0,0,8.98-4.738,42.508,42.508,0,0,0,8.633-7.279,54,54,0,0,0,7.364-10.4,53.362,53.362,0,0,0,5.183-14.094H721a29.02,29.02,0,0,1-7.828,10.631q-5.3,4.625-14.734,4.62-9.453,0-14.743-4.62a28.949,28.949,0,0,1-7.823-10.631,37.628,37.628,0,0,1-2.3-7.974q-0.689-4.04-1.152-7.976H753V246.7Zm-78.968-15.019a35.8,35.8,0,0,1,2.762-7.4,25.85,25.85,0,0,1,4.832-6.7,21.836,21.836,0,0,1,7.14-4.737,27.83,27.83,0,0,1,19.34,0,21.867,21.867,0,0,1,7.135,4.737,23.776,23.776,0,0,1,4.719,6.7,59.483,59.483,0,0,1,2.879,7.4H674.033Z"/>
  </g>
</svg>
