<?xml version="1.0" encoding="UTF-8" standalone="no"?>
<svg width="1056px" height="132px" viewBox="0 0 1056 132" version="1.1" xmlns="http://www.w3.org/2000/svg" xmlns:xlink="http://www.w3.org/1999/xlink">
    <!-- Generator: Sketch 39.1 (31720) - http://www.bohemiancoding.com/sketch -->
    <title>img-case-logo-foursquare</title>
    <desc>Created with Sketch.</desc>
    <defs></defs>
    <g id="Page-1" stroke="none" stroke-width="1" fill="none" fill-rule="evenodd">
        <g id="img-case-logo-foursquare" fill="#FFFFFF">
            <g id="::_foursquare">
                <path d="M303.562,1.558 C303.562,1.558 279.726,1.537 278.1,1.537 C276.185096,1.69924583 274.667851,3.22156517 274.512,5.137 L274.512,69.5 C274.512,80.03 270.74,85.631 261.042,85.631 C251.344,85.631 247.6,80.45 247.6,69.92 L247.6,5.056 C247.342879,3.20647272 245.865458,1.76609024 244.01,1.556 L218.535,1.556 C217.691207,1.48701388 216.858631,1.78512248 216.250396,2.37401536 C215.64216,2.96290823 215.31731,3.78541912 215.359,4.631 L215.359,75.892 C215.359,97.922 231.281,115.638 260.726,115.638 C290.487,115.638 306.726,97.922 306.726,75.892 L306.726,4.633 C306.679895,2.91950771 305.27611,1.55521007 303.562,1.558 L303.562,1.558 Z M486.935,46.99 L468.624,40.6 C463.224,38.682 462.575,35.649 462.575,33.89 C462.575,31.022 465.282,28.154 470.695,28.154 C478.917621,28.2448118 486.876036,31.0703657 493.315,36.185 C493.855678,36.6328167 494.554475,36.8429508 495.25247,36.7676141 C495.950465,36.6922773 496.588329,36.3378733 497.021,35.785 L511.237,17.785 C512.16004,16.6060782 512.01093,14.9133952 510.896,13.914 C498.81,3.625 483.934,0.048 470.213,0.043 C443.782,0.043 428.035,16.485 428.035,34.372 C428.035,48.418 436.144,61.355 453.513,67.256 L469.742,72.856 C477.699,75.566 478.981,77.648 478.981,81 C478.981,84.033 475.79,87.538 469.425,87.538 C460.435,87.538 449.877,82.12 442.769,76.214 C442.252723,75.7528641 441.566747,75.5293281 440.877903,75.5977563 C440.189059,75.6661845 439.560466,76.0203068 439.145,76.574 L424.552,95.793 C423.651806,96.9966107 423.803591,98.6852187 424.904,99.709 C435.449,108.877 451.113,115.651 470.859,115.651 C495.69,115.651 513.686,101.274 513.686,79.568 C513.686,64.708 504.448,53.046 486.935,46.99 L486.935,46.99 Z M78.5,1.558 L3.566,1.558 C1.68388087,1.76379109 0.199467037,3.25320015 0,5.136 L0,111.311 C0.0481217027,113.060685 1.42846219,114.481879 3.176,114.581 L29.436,114.581 C31.012,114.581 32.295,112.881 32.295,111.311 L32.295,75.319 L65.115,75.319 C66.7920357,75.3289056 68.2394273,74.1455539 68.563,72.5 L73.263,49.416 C73.4523566,48.7089718 73.2938836,47.9540299 72.8362073,47.382823 C72.378531,46.8116162 71.6763041,46.492354 70.945,46.523 L32.295,46.523 L32.295,30.177 L74.31,30.177 C75.9597852,30.1226222 77.3727642,28.979171 77.77,27.377 L82.194,5.337 C82.594,3.412 80.779,1.558 78.5,1.558 L78.5,1.558 Z M1047.82,30.33 C1049.46602,30.2712391 1050.87379,29.1287059 1051.27,27.53 L1055.92,5.5 C1056.13992,4.62613068 1055.95975,3.69971725 1055.42834,2.97197128 C1054.89692,2.24422531 1054.06934,1.79056226 1053.17,1.734 C1053.17,1.734 979.993,1.534 977.841,1.534 C976.047,1.534 974.254,5.351 974.254,6.934 L974.254,111.311 C974.254,113.111 976.463,114.911 977.954,114.911 L1046.768,114.911 C1048.41302,114.855208 1049.81944,113.710443 1050.208,112.111 L1054.858,90.061 C1055.278,88.149 1054.038,86.292 1051.398,86.292 L1006.548,86.292 L1006.548,71.567 L1039.328,71.567 C1040.97734,71.5099413 1042.38725,70.3623978 1042.778,68.759 L1047.688,46.059 C1047.89639,45.3506629 1047.74481,44.5851759 1047.28221,44.009708 C1046.8196,43.4342401 1046.10457,43.1216985 1045.368,43.173 L1006.548,43.173 L1006.548,30.33 L1047.818,30.33 L1047.82,30.33 Z M821.991,4.12 C821.321416,2.61116582 819.849695,1.6165601 818.2,1.558 L784.032,1.558 C782.405243,1.6121674 780.961253,2.61474261 780.342,4.12 L748.3,112.169 C748.053017,112.78901 748.131572,113.491363 748.509431,114.041486 C748.88729,114.59161 749.514655,114.917007 750.182,114.909 L778.766,114.909 C780.349977,114.767272 781.690096,113.679834 782.155,112.159 L786.687,95.114 L815.38,95.114 L820.309,112.169 C820.804941,113.685753 822.154954,114.762619 823.744,114.909 L852.168,114.909 C852.835169,114.916669 853.462225,114.591135 853.839845,114.041066 C854.217465,113.490997 854.295913,112.788844 854.049,112.169 L821.991,4.12 Z M790.691,64.52 L801.011,30.82 L811.356,64.52 L790.687,64.52 L790.691,64.52 Z M939.1,71.742 C952.61,65.042 959.6,54.52 959.6,38.886 C959.6,19.116 943.716,1.557 916.849,1.557 L868.4,1.557 C866.813,1.557 864.812,3.193 864.812,4.792 L864.812,111.311 C864.812,112.911 866.569,114.911 868.157,114.911 L893.631,114.911 C895.468701,114.631749 896.892309,113.157357 897.107,111.311 L897.107,77.118 L907.872,77.118 L926.933,112.365 C927.840161,113.863848 929.430451,114.81645 931.18,114.909 L961.18,114.909 C962.78,114.909 963.427,113.788 962.613,112.409 L939.1,71.742 Z M913.986,50.125 L897.1,50.125 L897.1,30.33 L913.249,30.33 C922.461,30.33 926.849,34.815 926.849,40.398 C926.849,45.981 923.2,50.125 913.986,50.125 L913.986,50.125 Z M637.969,99.645 C632.23937,101.839235 625.992437,102.306825 620,100.99 C619.988684,100.989111 619.977316,100.989111 619.966,100.99 C621.097,99.99 622.19,98.964 623.238,97.879 C638.265,81.879 642.526,57.936 635.17,37.54 C627.544,16.391 607.408,2.031 584.812,0.2 C562.16,-1.629 539.235,9.5 528.302,29.33 C516.862,50.057 519.002,77.407 534.575,95.559 C548.024,111.234 569.148,117.774 588.934,115.006 C589.203,115.271 589.498,115.554 589.813,115.849 C600.771,126.225 618.587,131.991 633.782,131.991 L640.054,101.379 C640.18989,100.818978 639.995181,100.23044 639.55211,99.8619583 C639.10904,99.4934765 638.49487,99.4093073 637.969,99.645 L637.969,99.645 Z M579.881,86.155 C565.301,86.155 555.429,73.465 555.429,57.826 C555.429,42.187 565.329,29.497 579.881,29.497 C594.433,29.497 604.324,42.175 604.324,57.826 C604.324,73.477 594.453,86.155 579.881,86.155 L579.881,86.155 Z M148.975,0.2 C126.332,-1.629 103.394,9.5 92.463,29.33 C81.023,50.057 83.163,77.407 98.735,95.559 C120.9,121.4 163.884,122.45 187.4,97.875 C202.427,81.881 206.688,57.932 199.333,37.536 C191.7,16.391 171.569,2.031 148.975,0.2 L148.975,0.2 Z M144.043,86.153 C129.473,86.153 119.601,73.463 119.601,57.824 C119.601,42.185 129.5,29.5 144.043,29.5 C158.586,29.5 168.485,42.178 168.485,57.829 C168.485,73.48 158.612,86.155 144.043,86.155 L144.043,86.153 Z M739.5,1.558 C739.5,1.558 715.664,1.537 714.039,1.537 C712.134992,1.70253644 710.635281,3.23025567 710.505,5.137 L710.505,69.92 C710.505,80.45 706.678,85.629 696.98,85.629 C687.282,85.629 683.537,80.45 683.537,69.92 L683.537,5.056 C683.537,3.338 681.41,1.556 679.949,1.556 L655,1.556 C653.564,1.556 651.3,3.837 651.3,5.134 L651.3,75.892 C651.3,97.922 667.221,115.638 696.665,115.638 C726.428,115.638 742.665,97.922 742.665,75.892 L742.665,5.136 C742.666,3.478 741.229,1.558 739.5,1.558 L739.5,1.558 Z M395.454,71.742 C408.963,65.042 415.954,54.52 415.954,38.886 C415.954,19.116 400.069,1.557 373.202,1.557 L324.751,1.557 C322.892525,1.81930815 321.430494,3.2772647 321.163,5.135 L321.163,111.311 C321.163,112.911 322.92,114.911 324.507,114.911 L349.981,114.911 C351.819149,114.631924 353.243437,113.157675 353.459,111.311 L353.459,77.118 L364.223,77.118 L383.283,112.365 C384.191305,113.862698 385.780925,114.814899 387.53,114.909 L417.53,114.909 C419.13,114.909 419.776,113.788 418.963,112.409 L395.454,71.742 Z M370.341,50.125 L353.459,50.125 L353.459,30.33 L369.606,30.33 C378.819,30.33 383.206,34.815 383.206,40.398 C383.206,45.981 379.555,50.125 370.341,50.125 L370.341,50.125 Z" id="::_foursquare-2"></path>
            </g>
        </g>
    </g>
</svg>