<svg id="::_case_studies" data-name=":: case studies" xmlns="http://www.w3.org/2000/svg" width="1056" height="132" viewBox="0 0 1056 132">
  <defs>
    <style>
      .cls-1 {
        fill: #fff;
        fill-rule: evenodd;
      }
    </style>
  </defs>
  <g id="::_foursquare" data-name=":: foursquare">
    <path id="::_foursquare-2" data-name=":: foursquare" class="cls-1" d="M303.562,1.558S279.726,1.537,278.1,1.537a3.933,3.933,0,0,0-3.588,3.6V69.5c0,10.53-3.772,16.131-13.47,16.131S247.6,80.45,247.6,69.92V5.056a4.089,4.089,0,0,0-3.59-3.5H218.535a2.94,2.94,0,0,0-3.176,3.075V75.892c0,22.03,15.922,39.746,45.367,39.746,29.761,0,46-17.716,46-39.746V4.633A3.16,3.16,0,0,0,303.562,1.558ZM486.935,46.99L468.624,40.6c-5.4-1.918-6.049-4.951-6.049-6.71,0-2.868,2.707-5.736,8.12-5.736a37.025,37.025,0,0,1,22.62,8.031,2.6,2.6,0,0,0,3.706-.4l14.216-18a2.844,2.844,0,0,0-.341-3.871C498.81,3.625,483.934.048,470.213,0.043c-26.431,0-42.178,16.442-42.178,34.329,0,14.046,8.109,26.983,25.478,32.884l16.229,5.6c7.957,2.71,9.239,4.792,9.239,8.144,0,3.033-3.191,6.538-9.556,6.538-8.99,0-19.548-5.418-26.656-11.324a2.472,2.472,0,0,0-3.624.36L424.552,95.793a2.942,2.942,0,0,0,.352,3.916c10.545,9.168,26.209,15.942,45.955,15.942,24.831,0,42.827-14.377,42.827-36.083C513.686,64.708,504.448,53.046,486.935,46.99ZM78.5,1.558H3.566A4.026,4.026,0,0,0,0,5.136V111.311a3.368,3.368,0,0,0,3.176,3.27h26.26c1.576,0,2.859-1.7,2.859-3.27V75.319h32.82A3.493,3.493,0,0,0,68.563,72.5l4.7-23.084a2.3,2.3,0,0,0-2.318-2.893H32.295V30.177H74.31a3.69,3.69,0,0,0,3.46-2.8L82.194,5.337C82.594,3.412,80.779,1.558,78.5,1.558ZM1047.82,30.33a3.69,3.69,0,0,0,3.45-2.8L1055.92,5.5a3.032,3.032,0,0,0-2.75-3.766s-73.177-.2-75.329-0.2c-1.794,0-3.587,3.817-3.587,5.4V111.311c0,1.8,2.209,3.6,3.7,3.6h68.814a3.668,3.668,0,0,0,3.44-2.8l4.65-22.05c0.42-1.912-.82-3.769-3.46-3.769h-44.85V71.567h32.78a3.682,3.682,0,0,0,3.45-2.808l4.91-22.7a2.255,2.255,0,0,0-2.32-2.886h-38.82V30.33h41.27ZM821.991,4.12A4.315,4.315,0,0,0,818.2,1.558H784.032a4.139,4.139,0,0,0-3.69,2.562L748.3,112.169a2,2,0,0,0,1.882,2.74h28.584a3.908,3.908,0,0,0,3.389-2.75l4.532-17.045h28.693l4.929,17.055a4,4,0,0,0,3.435,2.74h28.424a2,2,0,0,0,1.881-2.74Zm-31.3,60.4,10.32-33.7,10.345,33.7H790.687ZM939.1,71.742c13.51-6.7,20.5-17.222,20.5-32.856,0-19.77-15.884-37.329-42.751-37.329H868.4c-1.587,0-3.588,1.636-3.588,3.235V111.311c0,1.6,1.757,3.6,3.345,3.6h25.474a4.123,4.123,0,0,0,3.476-3.6V77.118h10.765l19.061,35.247a5.291,5.291,0,0,0,4.247,2.544h30c1.6,0,2.247-1.121,1.433-2.5ZM913.986,50.125H897.1V30.33h16.149c9.212,0,13.6,4.485,13.6,10.068S923.2,50.125,913.986,50.125ZM637.969,99.645A31.4,31.4,0,0,1,620,100.99a0.217,0.217,0,0,0-.034,0c1.131-1,2.224-2.026,3.272-3.111,15.027-16,19.288-39.943,11.932-60.339C627.544,16.391,607.408,2.031,584.812.2c-22.652-1.829-45.577,9.3-56.51,29.13-11.44,20.727-9.3,48.077,6.273,66.229,13.449,15.675,34.573,22.215,54.359,19.447,0.269,0.265.564,0.548,0.879,0.843,10.958,10.376,28.774,16.142,43.969,16.142l6.272-30.612A1.51,1.51,0,0,0,637.969,99.645Zm-58.088-13.49c-14.58,0-24.452-12.69-24.452-28.329s9.9-28.329,24.452-28.329,24.443,12.678,24.443,28.329S594.453,86.155,579.881,86.155ZM148.975,0.2c-22.643-1.829-45.581,9.3-56.512,29.13-11.44,20.727-9.3,48.077,6.272,66.229C120.9,121.4,163.884,122.45,187.4,97.875c15.027-15.994,19.288-39.943,11.933-60.339C191.7,16.391,171.569,2.031,148.975.2Zm-4.932,85.953c-14.57,0-24.442-12.69-24.442-28.329S129.5,29.5,144.043,29.5s24.442,12.678,24.442,28.329S158.612,86.155,144.043,86.155ZM739.5,1.558s-23.836-.021-25.461-0.021a3.879,3.879,0,0,0-3.534,3.6V69.92c0,10.53-3.827,15.709-13.525,15.709S683.537,80.45,683.537,69.92V5.056c0-1.718-2.127-3.5-3.588-3.5H655c-1.436,0-3.7,2.281-3.7,3.578V75.892c0,22.03,15.921,39.746,45.365,39.746,29.763,0,46-17.716,46-39.746V5.136C742.666,3.478,741.229,1.558,739.5,1.558ZM395.454,71.742c13.509-6.7,20.5-17.222,20.5-32.856,0-19.77-15.885-37.329-42.752-37.329H324.751a4.221,4.221,0,0,0-3.588,3.578V111.311c0,1.6,1.757,3.6,3.344,3.6h25.474a4.125,4.125,0,0,0,3.478-3.6V77.118h10.764l19.06,35.247a5.3,5.3,0,0,0,4.247,2.544h30c1.6,0,2.246-1.121,1.433-2.5ZM370.341,50.125H353.459V30.33h16.147c9.213,0,13.6,4.485,13.6,10.068S379.555,50.125,370.341,50.125Z"/>
  </g>
</svg>
