<?xml version="1.0" encoding="UTF-8" standalone="no"?>
<svg width="568px" height="104px" viewBox="0 0 568 104" version="1.1" xmlns="http://www.w3.org/2000/svg" xmlns:xlink="http://www.w3.org/1999/xlink">
    <!-- Generator: Sketch 39.1 (31720) - http://www.bohemiancoding.com/sketch -->
    <title>img-case-logo-fpcu</title>
    <desc>Created with Sketch.</desc>
    <defs></defs>
    <g id="Page-1" stroke="none" stroke-width="1" fill="none" fill-rule="evenodd">
        <g id="img-case-logo-fpcu" fill="#FFFFFF">
            <g id="Group">
                <g>
                    <g>
                        <polygon id="Shape" points="0.575 38.602 28.924 38.602 28.924 46.609 12.093 46.609 12.093 53.094 26.492 53.094 26.492 60.566 12.093 60.566 12.093 75.677 0.575 75.677"></polygon>
                        <path d="M34.79,38.602 L45.052,38.602 L45.052,45.531 L34.79,45.531 L34.79,38.602 L34.79,38.602 Z M34.79,48.768 L45.052,48.768 L45.052,75.677 L34.79,75.677 L34.79,48.768 L34.79,48.768 Z" id="Shape"></path>
                        <path d="M51.694,48.768 L61.249,48.768 L61.249,53.153 C62.681,51.35 64.124,50.065 65.596,49.296 C67.061,48.525 68.844,48.144 70.95,48.144 C73.799,48.144 76.022,48.984 77.633,50.688 C79.237,52.387 80.047,55.013 80.047,58.564 L80.047,75.678 L69.694,75.678 L69.694,60.878 C69.694,59.19 69.383,57.997 68.768,57.29 C68.142,56.591 67.266,56.249 66.138,56.249 C64.901,56.249 63.886,56.712 63.114,57.665 C62.341,58.608 61.96,60.308 61.96,62.747 L61.96,75.678 L51.695,75.678 L51.695,48.768 L51.694,48.768 Z" id="Shape"></path>
                        <path d="M95.633,57.41 L85.822,56.422 C86.196,54.7 86.727,53.338 87.422,52.357 C88.125,51.366 89.129,50.511 90.451,49.784 C91.389,49.259 92.685,48.856 94.336,48.573 C95.988,48.285 97.775,48.143 99.694,48.143 C102.77,48.143 105.246,48.314 107.121,48.659 C108.993,49.007 110.549,49.727 111.79,50.823 C112.669,51.589 113.361,52.669 113.862,54.061 C114.368,55.457 114.62,56.786 114.62,58.059 L114.62,69.946 C114.62,71.21 114.705,72.216 114.862,72.93 C115.023,73.645 115.379,74.559 115.913,75.677 L106.238,75.677 C105.853,74.985 105.597,74.457 105.476,74.1 C105.362,73.733 105.242,73.162 105.124,72.377 C103.78,73.689 102.435,74.617 101.114,75.186 C99.294,75.93 97.181,76.317 94.779,76.317 C91.578,76.317 89.158,75.565 87.499,74.077 C85.84,72.579 85.016,70.741 85.016,68.563 C85.016,66.514 85.605,64.823 86.806,63.508 C87.997,62.182 90.201,61.199 93.416,60.553 C97.265,59.769 99.766,59.227 100.909,58.914 C102.052,58.602 103.264,58.191 104.542,57.678 C104.542,56.414 104.282,55.528 103.758,55.018 C103.238,54.514 102.315,54.261 101.011,54.261 C99.323,54.261 98.063,54.53 97.224,55.059 C96.566,55.473 96.035,56.258 95.633,57.41 L95.633,57.41 Z M104.542,62.897 C103.139,63.402 101.671,63.856 100.151,64.245 C98.079,64.802 96.76,65.354 96.214,65.897 C95.643,66.444 95.36,67.079 95.36,67.791 C95.36,68.598 95.638,69.261 96.203,69.773 C96.76,70.293 97.583,70.545 98.675,70.545 C99.81,70.545 100.865,70.272 101.843,69.715 C102.824,69.154 103.516,68.477 103.926,67.674 C104.336,66.877 104.541,65.828 104.541,64.539 L104.541,62.897 L104.542,62.897 Z" id="Shape"></path>
                        <path d="M120.854,48.768 L130.405,48.768 L130.405,53.153 C131.837,51.35 133.287,50.065 134.752,49.296 C136.217,48.525 138,48.144 140.11,48.144 C142.952,48.144 145.178,48.984 146.79,50.688 C148.394,52.387 149.203,55.013 149.203,58.564 L149.203,75.678 L138.85,75.678 L138.85,60.878 C138.85,59.19 138.542,57.997 137.92,57.29 C137.297,56.591 136.422,56.249 135.298,56.249 C134.049,56.249 133.046,56.712 132.27,57.665 C131.497,58.608 131.113,60.308 131.113,62.747 L131.113,75.678 L120.855,75.678 L120.855,48.768 L120.854,48.768 Z" id="Shape"></path>
                        <path d="M175.408,65.152 L185.219,66.232 C184.677,68.287 183.798,70.056 182.568,71.568 C181.334,73.062 179.759,74.234 177.847,75.056 C175.932,75.892 173.504,76.316 170.552,76.316 C167.703,76.316 165.326,76.043 163.437,75.511 C161.54,74.978 159.907,74.118 158.544,72.922 C157.178,71.739 156.102,70.333 155.332,68.722 C154.556,67.121 154.168,64.993 154.168,62.339 C154.168,59.568 154.64,57.253 155.585,55.413 C156.273,54.059 157.222,52.847 158.416,51.774 C159.606,50.704 160.833,49.905 162.107,49.378 C164.106,48.552 166.677,48.142 169.815,48.142 C174.191,48.142 177.538,48.923 179.838,50.474 C182.134,52.04 183.749,54.319 184.676,57.322 L174.957,58.666 C174.657,57.483 174.107,56.575 173.305,55.982 C172.514,55.369 171.445,55.066 170.108,55.066 C168.412,55.066 167.043,55.689 165.995,56.926 C164.952,58.161 164.431,60.036 164.431,62.544 C164.431,64.777 164.944,66.483 165.988,67.638 C167.031,68.798 168.353,69.377 169.968,69.377 C171.312,69.377 172.44,69.03 173.356,68.345 C174.266,67.654 174.957,66.588 175.408,65.152 L175.408,65.152 Z" id="Shape"></path>
                        <path d="M190.364,38.602 L200.629,38.602 L200.629,45.531 L190.364,45.531 L190.364,38.602 L190.364,38.602 Z M190.364,48.768 L200.629,48.768 L200.629,75.677 L190.364,75.677 L190.364,48.768 L190.364,48.768 Z" id="Shape"></path>
                        <path d="M216.625,57.41 L206.818,56.422 C207.192,54.7 207.723,53.338 208.422,52.357 C209.121,51.366 210.128,50.511 211.443,49.784 C212.384,49.259 213.68,48.856 215.332,48.573 C216.984,48.285 218.771,48.143 220.69,48.143 C223.77,48.143 226.242,48.314 228.113,48.659 C229.984,49.007 231.544,49.727 232.789,50.823 C233.668,51.589 234.356,52.669 234.862,54.061 C235.364,55.457 235.616,56.786 235.616,58.059 L235.616,69.946 C235.616,71.21 235.701,72.216 235.858,72.93 C236.023,73.645 236.371,74.559 236.909,75.677 L227.238,75.677 C226.854,74.985 226.597,74.457 226.476,74.1 C226.359,73.733 226.234,73.162 226.124,72.377 C224.773,73.689 223.436,74.617 222.107,75.186 C220.291,75.93 218.181,76.317 215.771,76.317 C212.578,76.317 210.154,75.565 208.495,74.077 C206.836,72.579 206.009,70.741 206.009,68.563 C206.009,66.514 206.602,64.823 207.796,63.508 C208.993,62.182 211.198,61.199 214.409,60.553 C218.262,59.769 220.76,59.227 221.902,58.914 C223.048,58.602 224.26,58.191 225.538,57.678 C225.538,56.414 225.278,55.528 224.758,55.018 C224.234,54.514 223.319,54.261 222.011,54.261 C220.32,54.261 219.06,54.53 218.221,55.059 C217.562,55.473 217.031,56.258 216.625,57.41 L216.625,57.41 Z M225.539,62.897 C224.136,63.402 222.671,63.856 221.148,64.245 C219.079,64.802 217.761,65.354 217.211,65.897 C216.644,66.444 216.357,67.079 216.357,67.791 C216.357,68.598 216.635,69.261 217.2,69.773 C217.76,70.293 218.584,70.545 219.668,70.545 C220.807,70.545 221.862,70.272 222.84,69.715 C223.822,69.154 224.517,68.477 224.923,67.674 C225.333,66.877 225.538,65.828 225.538,64.539 L225.538,62.897 L225.539,62.897 Z" id="Shape"></path>
                        <rect id="Rectangle-path" x="242.208" y="38.602" width="10.353" height="37.075"></rect>
                        <path d="M311.602,38.602 L330.674,38.602 C334.82,38.602 337.928,39.59 339.993,41.571 C342.065,43.55 343.106,46.374 343.106,50.02 C343.106,53.778 341.977,56.711 339.717,58.825 C337.461,60.936 334.024,62.003 329.405,62.003 L323.126,62.003 L323.126,75.678 L311.601,75.678 L311.601,38.602 L311.602,38.602 Z M323.127,54.441 L325.935,54.441 C328.151,54.441 329.708,54.05 330.598,53.287 C331.498,52.521 331.941,51.536 331.941,50.34 C331.941,49.17 331.554,48.19 330.778,47.376 C330.002,46.563 328.537,46.164 326.389,46.164 L323.127,46.164 L323.127,54.441 L323.127,54.441 Z" id="Shape"></path>
                        <path d="M356.881,57.41 L347.072,56.422 C347.443,54.7 347.98,53.338 348.674,52.357 C349.372,51.366 350.383,50.511 351.701,49.784 C352.639,49.259 353.936,48.856 355.592,48.573 C357.238,48.285 359.026,48.143 360.942,48.143 C364.03,48.143 366.501,48.314 368.369,48.659 C370.247,49.007 371.8,49.727 373.05,50.823 C373.924,51.589 374.61,52.669 375.114,54.061 C375.623,55.457 375.876,56.786 375.876,58.059 L375.876,69.946 C375.876,71.21 375.957,72.216 376.118,72.93 C376.272,73.645 376.628,74.559 377.17,75.677 L367.493,75.677 C367.106,74.985 366.848,74.457 366.731,74.1 C366.618,73.733 366.491,73.162 366.379,72.377 C365.028,73.689 363.688,74.617 362.362,75.186 C360.549,75.93 358.436,76.317 356.037,76.317 C352.834,76.317 350.406,75.565 348.746,74.077 C347.084,72.579 346.267,70.741 346.267,68.563 C346.267,66.514 346.862,64.823 348.059,63.508 C349.244,62.182 351.457,61.199 354.669,60.553 C358.524,59.769 361.015,59.227 362.157,58.914 C363.302,58.602 364.515,58.191 365.797,57.678 C365.797,56.414 365.533,55.528 365.011,55.018 C364.49,54.514 363.571,54.261 362.257,54.261 C360.575,54.261 359.313,54.53 358.473,55.059 C357.821,55.473 357.291,56.258 356.881,57.41 L356.881,57.41 Z M365.797,62.897 C364.387,63.402 362.926,63.856 361.402,64.245 C359.338,64.802 358.019,65.354 357.469,65.897 C356.895,66.444 356.608,67.079 356.608,67.791 C356.608,68.598 356.895,69.261 357.452,69.773 C358.012,70.293 358.835,70.545 359.924,70.545 C361.067,70.545 362.113,70.272 363.102,69.715 C364.074,69.154 364.772,68.477 365.175,67.674 C365.588,66.877 365.797,65.828 365.797,64.539 L365.797,62.897 L365.797,62.897 Z" id="Shape"></path>
                        <path d="M382.189,48.768 L391.837,48.768 L391.837,53.166 C392.757,51.254 393.716,49.936 394.705,49.222 C395.686,48.5 396.905,48.143 398.36,48.143 C399.876,48.143 401.538,48.618 403.34,49.581 L400.15,56.913 C398.945,56.407 397.973,56.151 397.275,56.151 C395.927,56.151 394.877,56.712 394.129,57.821 C393.07,59.399 392.535,62.341 392.535,66.647 L392.535,75.677 L382.186,75.677 L382.186,48.768 L382.189,48.768 Z" id="Shape"></path>
                        <path d="M420.109,38.602 L420.109,48.768 L425.783,48.768 L425.783,56.33 L420.109,56.33 L420.109,65.881 C420.109,67.027 420.22,67.785 420.435,68.158 C420.78,68.733 421.366,69.021 422.204,69.021 C422.966,69.021 424.029,68.798 425.387,68.359 L426.142,75.476 C423.6,76.033 421.213,76.316 419.008,76.316 C416.438,76.316 414.547,75.98 413.332,75.325 C412.12,74.662 411.215,73.666 410.637,72.318 C410.058,70.978 409.762,68.806 409.762,65.798 L409.762,56.329 L405.983,56.329 L405.983,48.767 L409.762,48.767 L409.762,43.865 L420.109,38.602 L420.109,38.602 Z" id="Shape"></path>
                        <path d="M430.705,48.768 L440.26,48.768 L440.26,53.153 C441.687,51.35 443.134,50.065 444.599,49.296 C446.067,48.525 447.851,48.144 449.957,48.144 C452.802,48.144 455.031,48.984 456.643,50.688 C458.251,52.387 459.057,55.013 459.057,58.564 L459.057,75.678 L448.703,75.678 L448.703,60.878 C448.703,59.19 448.393,57.997 447.763,57.29 C447.148,56.591 446.276,56.249 445.144,56.249 C443.899,56.249 442.893,56.712 442.126,57.665 C441.347,58.608 440.959,60.308 440.959,62.747 L440.959,75.678 L430.705,75.678 L430.705,48.768 L430.705,48.768 Z" id="Shape"></path>
                        <path d="M495.07,64.793 L474.376,64.793 C474.563,66.455 475.009,67.697 475.724,68.523 C476.723,69.693 478.03,70.271 479.641,70.271 C480.664,70.271 481.642,70.017 482.553,69.499 C483.11,69.167 483.713,68.591 484.358,67.761 L494.539,68.747 C492.972,71.446 491.094,73.376 488.899,74.552 C486.706,75.728 483.552,76.316 479.44,76.316 C475.876,76.316 473.073,75.8 471.028,74.798 C468.981,73.795 467.287,72.195 465.942,69.998 C464.597,67.807 463.935,65.24 463.935,62.277 C463.935,58.064 465.276,54.656 467.966,52.048 C470.658,49.444 474.379,48.142 479.125,48.142 C482.971,48.142 486.007,48.723 488.233,49.89 C490.462,51.06 492.162,52.751 493.322,54.968 C494.488,57.185 495.07,60.068 495.07,63.617 L495.07,64.793 L495.07,64.793 Z M484.63,59.846 C484.428,57.85 483.886,56.414 483.01,55.557 C482.131,54.694 480.983,54.261 479.557,54.261 C477.907,54.261 476.584,54.91 475.592,56.213 C474.962,57.022 474.563,58.231 474.391,59.846 L484.63,59.846 L484.63,59.846 Z" id="Shape"></path>
                        <path d="M499.943,48.768 L509.593,48.768 L509.593,53.166 C510.516,51.254 511.468,49.936 512.456,49.222 C513.442,48.5 514.658,48.143 516.118,48.143 C517.628,48.143 519.298,48.618 521.095,49.581 L517.916,56.913 C516.697,56.407 515.742,56.151 515.03,56.151 C513.679,56.151 512.636,56.712 511.892,57.821 C510.823,59.399 510.298,62.341 510.298,66.647 L510.298,75.677 L499.942,75.677 L499.942,48.768 L499.943,48.768 Z" id="Shape"></path>
                        <path d="M522.268,68.211 L532.526,67.309 C532.947,68.51 533.538,69.356 534.303,69.87 C535.065,70.386 536.076,70.639 537.341,70.639 C538.727,70.639 539.791,70.341 540.553,69.753 C541.147,69.313 541.443,68.764 541.443,68.101 C541.443,67.353 541.051,66.783 540.283,66.372 C539.72,66.083 538.247,65.731 535.852,65.3 C532.27,64.677 529.788,64.101 528.385,63.568 C526.999,63.041 525.824,62.138 524.869,60.873 C523.92,59.609 523.439,58.164 523.439,56.548 C523.439,54.775 523.952,53.244 524.982,51.963 C526.011,50.682 527.435,49.722 529.237,49.088 C531.047,48.457 533.473,48.145 536.514,48.145 C539.718,48.145 542.083,48.381 543.618,48.877 C545.144,49.365 546.416,50.125 547.444,51.162 C548.458,52.193 549.316,53.584 549.99,55.336 L540.176,56.332 C539.923,55.439 539.505,54.79 538.911,54.375 C538.099,53.823 537.117,53.541 535.968,53.541 C534.791,53.541 533.95,53.75 533.414,54.168 C532.884,54.585 532.62,55.083 532.62,55.676 C532.62,56.338 532.96,56.83 533.645,57.174 C534.33,57.515 535.813,57.822 538.077,58.09 C541.497,58.486 544.046,59.02 545.719,59.719 C547.389,60.41 548.672,61.401 549.557,62.69 C550.445,63.979 550.887,65.391 550.887,66.934 C550.887,68.495 550.421,70.006 549.478,71.483 C548.543,72.962 547.061,74.131 545.045,75.01 C543.028,75.879 540.27,76.319 536.792,76.319 C531.876,76.319 528.372,75.614 526.284,74.204 C524.201,72.795 522.862,70.803 522.268,68.211 L522.268,68.211 Z" id="Shape"></path>
                        <path d="M292.917,13.836 C294.342,27.611 273.685,30.443 272.194,15.97 C270.736,1.79 291.452,-0.345 292.917,13.836" id="Shape"></path>
                        <path d="M247.006,0.526 C269.07,22.543 281.932,45.566 313.371,20.416 C286.542,39.764 290.49,72.916 286.959,102.601 C275.735,66.639 266.217,33.084 247.006,0.526" id="Shape"></path>
                        <path d="M322.562,98.283 L324.469,98.767 C324.073,100.344 323.345,101.535 322.31,102.361 C321.27,103.186 320.002,103.596 318.487,103.596 C316.937,103.596 315.677,103.285 314.699,102.652 C313.726,102.019 312.982,101.095 312.476,99.898 C311.971,98.693 311.719,97.404 311.719,96.019 C311.719,94.521 311.997,93.207 312.569,92.089 C313.15,90.964 313.964,90.114 315.021,89.528 C316.085,88.954 317.252,88.659 318.522,88.659 C319.969,88.659 321.177,89.028 322.164,89.767 C323.151,90.504 323.834,91.535 324.221,92.877 L322.331,93.317 C322.003,92.268 321.511,91.491 320.878,91.016 C320.245,90.547 319.442,90.301 318.482,90.301 C317.379,90.301 316.454,90.569 315.71,91.09 C314.967,91.635 314.439,92.35 314.143,93.242 C313.844,94.137 313.694,95.064 313.694,96.012 C313.694,97.238 313.874,98.311 314.228,99.225 C314.583,100.143 315.148,100.827 315.895,101.274 C316.645,101.727 317.462,101.959 318.341,101.959 C319.406,101.959 320.315,101.647 321.057,101.035 C321.793,100.41 322.299,99.502 322.562,98.283 L322.562,98.283 Z" id="Shape"></path>
                        <path d="M328.85,103.357 L328.85,88.912 L335.256,88.912 C336.537,88.912 337.522,89.036 338.186,89.3 C338.852,89.559 339.394,90.014 339.79,90.677 C340.192,91.336 340.39,92.054 340.39,92.85 C340.39,93.871 340.061,94.739 339.394,95.438 C338.738,96.149 337.717,96.595 336.33,96.786 C336.831,97.024 337.215,97.269 337.478,97.499 C338.035,98.017 338.559,98.657 339.054,99.423 L341.555,103.359 L339.177,103.359 L337.262,100.353 C336.705,99.49 336.244,98.818 335.885,98.365 C335.515,97.904 335.197,97.578 334.914,97.398 C334.625,97.211 334.337,97.08 334.035,97.011 C333.824,96.966 333.469,96.943 332.977,96.943 L330.765,96.943 L330.765,103.359 L328.85,103.359 L328.85,103.357 Z M330.766,95.283 L334.87,95.283 C335.743,95.283 336.423,95.183 336.918,95.008 C337.401,94.822 337.782,94.529 338.031,94.139 C338.287,93.743 338.412,93.319 338.412,92.85 C338.412,92.164 338.163,91.608 337.668,91.161 C337.174,90.729 336.402,90.507 335.336,90.507 L330.766,90.507 L330.766,95.283 L330.766,95.283 Z" id="Shape"></path>
                        <polygon id="Shape" points="345.465 103.357 345.465 88.912 355.891 88.912 355.891 90.613 347.385 90.613 347.385 95.031 355.349 95.031 355.349 96.741 347.385 96.741 347.385 101.641 356.225 101.641 356.225 103.357"></polygon>
                        <path d="M360.868,103.357 L360.868,88.912 L365.834,88.912 C366.959,88.912 367.818,88.977 368.404,89.119 C369.229,89.307 369.935,89.656 370.518,90.144 C371.283,90.793 371.847,91.614 372.22,92.624 C372.604,93.624 372.791,94.759 372.791,96.048 C372.791,97.151 372.659,98.117 372.407,98.967 C372.146,99.817 371.824,100.515 371.421,101.071 C371.022,101.633 370.582,102.061 370.108,102.383 C369.634,102.694 369.059,102.94 368.39,103.104 C367.716,103.268 366.944,103.356 366.071,103.356 L360.868,103.356 L360.868,103.357 Z M362.779,101.641 L365.851,101.641 C366.803,101.641 367.547,101.557 368.086,101.377 C368.624,101.201 369.056,100.949 369.378,100.627 C369.832,100.18 370.181,99.572 370.433,98.803 C370.685,98.037 370.806,97.108 370.806,96.02 C370.806,94.515 370.565,93.354 370.07,92.545 C369.576,91.731 368.971,91.19 368.262,90.916 C367.759,90.721 366.932,90.613 365.801,90.613 L362.779,90.613 L362.779,101.641 L362.779,101.641 Z" id="Shape"></path>
                        <rect id="Rectangle-path" x="377.779" y="88.912" width="1.909" height="14.445"></rect>
                        <polygon id="Shape" points="388.727 103.357 388.727 90.613 383.98 90.613 383.98 88.912 395.387 88.912 395.387 90.613 390.641 90.613 390.641 103.357"></polygon>
                        <path d="M416.115,88.912 L418.023,88.912 L418.023,97.254 C418.023,98.709 417.862,99.861 417.531,100.719 C417.206,101.571 416.608,102.264 415.753,102.801 C414.899,103.328 413.772,103.597 412.375,103.597 C411.021,103.597 409.918,103.368 409.061,102.899 C408.194,102.436 407.582,101.758 407.215,100.873 C406.846,99.994 406.665,98.788 406.665,97.255 L406.665,88.913 L408.574,88.913 L408.574,97.24 C408.574,98.493 408.691,99.423 408.921,100.008 C409.155,100.604 409.562,101.067 410.13,101.389 C410.698,101.707 411.39,101.873 412.213,101.873 C413.616,101.873 414.62,101.551 415.22,100.916 C415.814,100.279 416.114,99.056 416.114,97.239 L416.114,88.912 L416.115,88.912 Z" id="Shape"></path>
                        <polygon id="Shape" points="423.197 103.357 423.197 88.912 425.146 88.912 432.78 100.264 432.78 88.912 434.597 88.912 434.597 103.357 432.657 103.357 425.017 91.99 425.017 103.357"></polygon>
                        <rect id="Rectangle-path" x="440.128" y="88.912" width="1.915" height="14.445"></rect>
                        <path d="M446.825,96.324 C446.825,93.928 447.467,92.053 448.756,90.699 C450.041,89.344 451.711,88.66 453.739,88.66 C455.075,88.66 456.276,88.977 457.345,89.617 C458.419,90.252 459.239,91.138 459.8,92.283 C460.36,93.424 460.641,94.709 460.641,96.155 C460.641,97.613 460.342,98.931 459.751,100.086 C459.155,101.246 458.323,102.117 457.239,102.711 C456.155,103.299 454.983,103.597 453.726,103.597 C452.368,103.597 451.153,103.27 450.083,102.615 C449.01,101.961 448.201,101.066 447.651,99.927 C447.101,98.797 446.825,97.591 446.825,96.324 L446.825,96.324 Z M448.806,96.346 C448.806,98.089 449.269,99.459 450.209,100.455 C451.144,101.453 452.311,101.961 453.722,101.961 C455.157,101.961 456.344,101.453 457.267,100.44 C458.19,99.43 458.659,98.001 458.659,96.141 C458.659,94.961 458.464,93.936 458.061,93.065 C457.672,92.194 457.091,91.508 456.318,91.024 C455.556,90.549 454.704,90.303 453.757,90.303 C452.403,90.303 451.246,90.765 450.265,91.696 C449.289,92.625 448.806,94.174 448.806,96.346 L448.806,96.346 Z" id="Shape"></path>
                        <polygon id="Shape" points="465.084 103.357 465.084 88.912 467.04 88.912 474.672 100.264 474.672 88.912 476.491 88.912 476.491 103.357 474.543 103.357 466.908 91.99 466.908 103.357"></polygon>
                    </g>
                    <polygon id="Shape" points="0.575 38.602 28.924 38.602 28.924 46.609 12.093 46.609 12.093 53.094 26.492 53.094 26.492 60.566 12.093 60.566 12.093 75.677 0.575 75.677"></polygon>
                    <path d="M34.79,38.602 L45.052,38.602 L45.052,45.531 L34.79,45.531 L34.79,38.602 L34.79,38.602 Z M34.79,48.768 L45.052,48.768 L45.052,75.677 L34.79,75.677 L34.79,48.768 L34.79,48.768 Z" id="Shape"></path>
                    <path d="M51.694,48.768 L61.249,48.768 L61.249,53.153 C62.681,51.35 64.124,50.065 65.596,49.296 C67.061,48.525 68.844,48.144 70.95,48.144 C73.799,48.144 76.022,48.984 77.633,50.688 C79.237,52.387 80.047,55.013 80.047,58.564 L80.047,75.678 L69.694,75.678 L69.694,60.878 C69.694,59.19 69.383,57.997 68.768,57.29 C68.142,56.591 67.266,56.249 66.138,56.249 C64.901,56.249 63.886,56.712 63.114,57.665 C62.341,58.608 61.96,60.308 61.96,62.747 L61.96,75.678 L51.695,75.678 L51.695,48.768 L51.694,48.768 Z" id="Shape"></path>
                    <path d="M95.633,57.41 L85.822,56.422 C86.196,54.7 86.727,53.338 87.422,52.357 C88.125,51.366 89.129,50.511 90.451,49.784 C91.389,49.259 92.685,48.856 94.336,48.573 C95.988,48.285 97.775,48.143 99.694,48.143 C102.77,48.143 105.246,48.314 107.121,48.659 C108.993,49.007 110.549,49.727 111.79,50.823 C112.669,51.589 113.361,52.669 113.862,54.061 C114.368,55.457 114.62,56.786 114.62,58.059 L114.62,69.946 C114.62,71.21 114.705,72.216 114.862,72.93 C115.023,73.645 115.379,74.559 115.913,75.677 L106.238,75.677 C105.853,74.985 105.597,74.457 105.476,74.1 C105.362,73.733 105.242,73.162 105.124,72.377 C103.78,73.689 102.435,74.617 101.114,75.186 C99.294,75.93 97.181,76.317 94.779,76.317 C91.578,76.317 89.158,75.565 87.499,74.077 C85.84,72.579 85.016,70.741 85.016,68.563 C85.016,66.514 85.605,64.823 86.806,63.508 C87.997,62.182 90.201,61.199 93.416,60.553 C97.265,59.769 99.766,59.227 100.909,58.914 C102.052,58.602 103.264,58.191 104.542,57.678 C104.542,56.414 104.282,55.528 103.758,55.018 C103.238,54.514 102.315,54.261 101.011,54.261 C99.323,54.261 98.063,54.53 97.224,55.059 C96.566,55.473 96.035,56.258 95.633,57.41 L95.633,57.41 Z M104.542,62.897 C103.139,63.402 101.671,63.856 100.151,64.245 C98.079,64.802 96.76,65.354 96.214,65.897 C95.643,66.444 95.36,67.079 95.36,67.791 C95.36,68.598 95.638,69.261 96.203,69.773 C96.76,70.293 97.583,70.545 98.675,70.545 C99.81,70.545 100.865,70.272 101.843,69.715 C102.824,69.154 103.516,68.477 103.926,67.674 C104.336,66.877 104.541,65.828 104.541,64.539 L104.541,62.897 L104.542,62.897 Z" id="Shape"></path>
                    <path d="M120.854,48.768 L130.405,48.768 L130.405,53.153 C131.837,51.35 133.287,50.065 134.752,49.296 C136.217,48.525 138,48.144 140.11,48.144 C142.952,48.144 145.178,48.984 146.79,50.688 C148.394,52.387 149.203,55.013 149.203,58.564 L149.203,75.678 L138.85,75.678 L138.85,60.878 C138.85,59.19 138.542,57.997 137.92,57.29 C137.297,56.591 136.422,56.249 135.298,56.249 C134.049,56.249 133.046,56.712 132.27,57.665 C131.497,58.608 131.113,60.308 131.113,62.747 L131.113,75.678 L120.855,75.678 L120.855,48.768 L120.854,48.768 Z" id="Shape"></path>
                    <path d="M175.408,65.152 L185.219,66.232 C184.677,68.287 183.798,70.056 182.568,71.568 C181.334,73.062 179.759,74.234 177.847,75.056 C175.932,75.892 173.504,76.316 170.552,76.316 C167.703,76.316 165.326,76.043 163.437,75.511 C161.54,74.978 159.907,74.118 158.544,72.922 C157.178,71.739 156.102,70.333 155.332,68.722 C154.556,67.121 154.168,64.993 154.168,62.339 C154.168,59.568 154.64,57.253 155.585,55.413 C156.273,54.059 157.222,52.847 158.416,51.774 C159.606,50.704 160.833,49.905 162.107,49.378 C164.106,48.552 166.677,48.142 169.815,48.142 C174.191,48.142 177.538,48.923 179.838,50.474 C182.134,52.04 183.749,54.319 184.676,57.322 L174.957,58.666 C174.657,57.483 174.107,56.575 173.305,55.982 C172.514,55.369 171.445,55.066 170.108,55.066 C168.412,55.066 167.043,55.689 165.995,56.926 C164.952,58.161 164.431,60.036 164.431,62.544 C164.431,64.777 164.944,66.483 165.988,67.638 C167.031,68.798 168.353,69.377 169.968,69.377 C171.312,69.377 172.44,69.03 173.356,68.345 C174.266,67.654 174.957,66.588 175.408,65.152 L175.408,65.152 Z" id="Shape"></path>
                    <path d="M190.364,38.602 L200.629,38.602 L200.629,45.531 L190.364,45.531 L190.364,38.602 L190.364,38.602 Z M190.364,48.768 L200.629,48.768 L200.629,75.677 L190.364,75.677 L190.364,48.768 L190.364,48.768 Z" id="Shape"></path>
                    <path d="M216.625,57.41 L206.818,56.422 C207.192,54.7 207.723,53.338 208.422,52.357 C209.121,51.366 210.128,50.511 211.443,49.784 C212.384,49.259 213.68,48.856 215.332,48.573 C216.984,48.285 218.771,48.143 220.69,48.143 C223.77,48.143 226.242,48.314 228.113,48.659 C229.984,49.007 231.544,49.727 232.789,50.823 C233.668,51.589 234.356,52.669 234.862,54.061 C235.364,55.457 235.616,56.786 235.616,58.059 L235.616,69.946 C235.616,71.21 235.701,72.216 235.858,72.93 C236.023,73.645 236.371,74.559 236.909,75.677 L227.238,75.677 C226.854,74.985 226.597,74.457 226.476,74.1 C226.359,73.733 226.234,73.162 226.124,72.377 C224.773,73.689 223.436,74.617 222.107,75.186 C220.291,75.93 218.181,76.317 215.771,76.317 C212.578,76.317 210.154,75.565 208.495,74.077 C206.836,72.579 206.009,70.741 206.009,68.563 C206.009,66.514 206.602,64.823 207.796,63.508 C208.993,62.182 211.198,61.199 214.409,60.553 C218.262,59.769 220.76,59.227 221.902,58.914 C223.048,58.602 224.26,58.191 225.538,57.678 C225.538,56.414 225.278,55.528 224.758,55.018 C224.234,54.514 223.319,54.261 222.011,54.261 C220.32,54.261 219.06,54.53 218.221,55.059 C217.562,55.473 217.031,56.258 216.625,57.41 L216.625,57.41 Z M225.539,62.897 C224.136,63.402 222.671,63.856 221.148,64.245 C219.079,64.802 217.761,65.354 217.211,65.897 C216.644,66.444 216.357,67.079 216.357,67.791 C216.357,68.598 216.635,69.261 217.2,69.773 C217.76,70.293 218.584,70.545 219.668,70.545 C220.807,70.545 221.862,70.272 222.84,69.715 C223.822,69.154 224.517,68.477 224.923,67.674 C225.333,66.877 225.538,65.828 225.538,64.539 L225.538,62.897 L225.539,62.897 Z" id="Shape"></path>
                    <rect id="Rectangle-path" x="242.208" y="38.602" width="10.353" height="37.075"></rect>
                    <path d="M311.602,38.602 L330.674,38.602 C334.82,38.602 337.928,39.59 339.993,41.571 C342.065,43.55 343.106,46.374 343.106,50.02 C343.106,53.778 341.977,56.711 339.717,58.825 C337.461,60.936 334.024,62.003 329.405,62.003 L323.126,62.003 L323.126,75.678 L311.601,75.678 L311.601,38.602 L311.602,38.602 Z M323.127,54.441 L325.935,54.441 C328.151,54.441 329.708,54.05 330.598,53.287 C331.498,52.521 331.941,51.536 331.941,50.34 C331.941,49.17 331.554,48.19 330.778,47.376 C330.002,46.563 328.537,46.164 326.389,46.164 L323.127,46.164 L323.127,54.441 L323.127,54.441 Z" id="Shape"></path>
                    <path d="M356.881,57.41 L347.072,56.422 C347.443,54.7 347.98,53.338 348.674,52.357 C349.372,51.366 350.383,50.511 351.701,49.784 C352.639,49.259 353.936,48.856 355.592,48.573 C357.238,48.285 359.026,48.143 360.942,48.143 C364.03,48.143 366.501,48.314 368.369,48.659 C370.247,49.007 371.8,49.727 373.05,50.823 C373.924,51.589 374.61,52.669 375.114,54.061 C375.623,55.457 375.876,56.786 375.876,58.059 L375.876,69.946 C375.876,71.21 375.957,72.216 376.118,72.93 C376.272,73.645 376.628,74.559 377.17,75.677 L367.493,75.677 C367.106,74.985 366.848,74.457 366.731,74.1 C366.618,73.733 366.491,73.162 366.379,72.377 C365.028,73.689 363.688,74.617 362.362,75.186 C360.549,75.93 358.436,76.317 356.037,76.317 C352.834,76.317 350.406,75.565 348.746,74.077 C347.084,72.579 346.267,70.741 346.267,68.563 C346.267,66.514 346.862,64.823 348.059,63.508 C349.244,62.182 351.457,61.199 354.669,60.553 C358.524,59.769 361.015,59.227 362.157,58.914 C363.302,58.602 364.515,58.191 365.797,57.678 C365.797,56.414 365.533,55.528 365.011,55.018 C364.49,54.514 363.571,54.261 362.257,54.261 C360.575,54.261 359.313,54.53 358.473,55.059 C357.821,55.473 357.291,56.258 356.881,57.41 L356.881,57.41 Z M365.797,62.897 C364.387,63.402 362.926,63.856 361.402,64.245 C359.338,64.802 358.019,65.354 357.469,65.897 C356.895,66.444 356.608,67.079 356.608,67.791 C356.608,68.598 356.895,69.261 357.452,69.773 C358.012,70.293 358.835,70.545 359.924,70.545 C361.067,70.545 362.113,70.272 363.102,69.715 C364.074,69.154 364.772,68.477 365.175,67.674 C365.588,66.877 365.797,65.828 365.797,64.539 L365.797,62.897 L365.797,62.897 Z" id="Shape"></path>
                    <path d="M382.189,48.768 L391.837,48.768 L391.837,53.166 C392.757,51.254 393.716,49.936 394.705,49.222 C395.686,48.5 396.905,48.143 398.36,48.143 C399.876,48.143 401.538,48.618 403.34,49.581 L400.15,56.913 C398.945,56.407 397.973,56.151 397.275,56.151 C395.927,56.151 394.877,56.712 394.129,57.821 C393.07,59.399 392.535,62.341 392.535,66.647 L392.535,75.677 L382.186,75.677 L382.186,48.768 L382.189,48.768 Z" id="Shape"></path>
                    <path d="M420.109,38.602 L420.109,48.768 L425.783,48.768 L425.783,56.33 L420.109,56.33 L420.109,65.881 C420.109,67.027 420.22,67.785 420.435,68.158 C420.78,68.733 421.366,69.021 422.204,69.021 C422.966,69.021 424.029,68.798 425.387,68.359 L426.142,75.476 C423.6,76.033 421.213,76.316 419.008,76.316 C416.438,76.316 414.547,75.98 413.332,75.325 C412.12,74.662 411.215,73.666 410.637,72.318 C410.058,70.978 409.762,68.806 409.762,65.798 L409.762,56.329 L405.983,56.329 L405.983,48.767 L409.762,48.767 L409.762,43.865 L420.109,38.602 L420.109,38.602 Z" id="Shape"></path>
                    <path d="M430.705,48.768 L440.26,48.768 L440.26,53.153 C441.687,51.35 443.134,50.065 444.599,49.296 C446.067,48.525 447.851,48.144 449.957,48.144 C452.802,48.144 455.031,48.984 456.643,50.688 C458.251,52.387 459.057,55.013 459.057,58.564 L459.057,75.678 L448.703,75.678 L448.703,60.878 C448.703,59.19 448.393,57.997 447.763,57.29 C447.148,56.591 446.276,56.249 445.144,56.249 C443.899,56.249 442.893,56.712 442.126,57.665 C441.347,58.608 440.959,60.308 440.959,62.747 L440.959,75.678 L430.705,75.678 L430.705,48.768 L430.705,48.768 Z" id="Shape"></path>
                    <path d="M495.07,64.793 L474.376,64.793 C474.563,66.455 475.009,67.697 475.724,68.523 C476.723,69.693 478.03,70.271 479.641,70.271 C480.664,70.271 481.642,70.017 482.553,69.499 C483.11,69.167 483.713,68.591 484.358,67.761 L494.539,68.747 C492.972,71.446 491.094,73.376 488.899,74.552 C486.706,75.728 483.552,76.316 479.44,76.316 C475.876,76.316 473.073,75.8 471.028,74.798 C468.981,73.795 467.287,72.195 465.942,69.998 C464.597,67.807 463.935,65.24 463.935,62.277 C463.935,58.064 465.276,54.656 467.966,52.048 C470.658,49.444 474.379,48.142 479.125,48.142 C482.971,48.142 486.007,48.723 488.233,49.89 C490.462,51.06 492.162,52.751 493.322,54.968 C494.488,57.185 495.07,60.068 495.07,63.617 L495.07,64.793 L495.07,64.793 Z M484.63,59.846 C484.428,57.85 483.886,56.414 483.01,55.557 C482.131,54.694 480.983,54.261 479.557,54.261 C477.907,54.261 476.584,54.91 475.592,56.213 C474.962,57.022 474.563,58.231 474.391,59.846 L484.63,59.846 L484.63,59.846 Z" id="Shape"></path>
                    <path d="M499.943,48.768 L509.593,48.768 L509.593,53.166 C510.516,51.254 511.468,49.936 512.456,49.222 C513.442,48.5 514.658,48.143 516.118,48.143 C517.628,48.143 519.298,48.618 521.095,49.581 L517.916,56.913 C516.697,56.407 515.742,56.151 515.03,56.151 C513.679,56.151 512.636,56.712 511.892,57.821 C510.823,59.399 510.298,62.341 510.298,66.647 L510.298,75.677 L499.942,75.677 L499.942,48.768 L499.943,48.768 Z" id="Shape"></path>
                    <path d="M522.268,68.211 L532.526,67.309 C532.947,68.51 533.538,69.356 534.303,69.87 C535.065,70.386 536.076,70.639 537.341,70.639 C538.727,70.639 539.791,70.341 540.553,69.753 C541.147,69.313 541.443,68.764 541.443,68.101 C541.443,67.353 541.051,66.783 540.283,66.372 C539.72,66.083 538.247,65.731 535.852,65.3 C532.27,64.677 529.788,64.101 528.385,63.568 C526.999,63.041 525.824,62.138 524.869,60.873 C523.92,59.609 523.439,58.164 523.439,56.548 C523.439,54.775 523.952,53.244 524.982,51.963 C526.011,50.682 527.435,49.722 529.237,49.088 C531.047,48.457 533.473,48.145 536.514,48.145 C539.718,48.145 542.083,48.381 543.618,48.877 C545.144,49.365 546.416,50.125 547.444,51.162 C548.458,52.193 549.316,53.584 549.99,55.336 L540.176,56.332 C539.923,55.439 539.505,54.79 538.911,54.375 C538.099,53.823 537.117,53.541 535.968,53.541 C534.791,53.541 533.95,53.75 533.414,54.168 C532.884,54.585 532.62,55.083 532.62,55.676 C532.62,56.338 532.96,56.83 533.645,57.174 C534.33,57.515 535.813,57.822 538.077,58.09 C541.497,58.486 544.046,59.02 545.719,59.719 C547.389,60.41 548.672,61.401 549.557,62.69 C550.445,63.979 550.887,65.391 550.887,66.934 C550.887,68.495 550.421,70.006 549.478,71.483 C548.543,72.962 547.061,74.131 545.045,75.01 C543.028,75.879 540.27,76.319 536.792,76.319 C531.876,76.319 528.372,75.614 526.284,74.204 C524.201,72.795 522.862,70.803 522.268,68.211 L522.268,68.211 Z" id="Shape"></path>
                    <path d="M292.917,13.836 C294.342,27.611 273.685,30.443 272.194,15.97 C270.736,1.79 291.452,-0.345 292.917,13.836" id="Shape"></path>
                    <path d="M247.006,0.526 C269.07,22.543 281.932,45.566 313.371,20.416 C286.542,39.764 290.49,72.916 286.959,102.601 C275.735,66.639 266.217,33.084 247.006,0.526" id="Shape"></path>
                    <path d="M322.562,98.283 L324.469,98.767 C324.073,100.344 323.345,101.535 322.31,102.361 C321.27,103.186 320.002,103.596 318.487,103.596 C316.937,103.596 315.677,103.285 314.699,102.652 C313.726,102.019 312.982,101.095 312.476,99.898 C311.971,98.693 311.719,97.404 311.719,96.019 C311.719,94.521 311.997,93.207 312.569,92.089 C313.15,90.964 313.964,90.114 315.021,89.528 C316.085,88.954 317.252,88.659 318.522,88.659 C319.969,88.659 321.177,89.028 322.164,89.767 C323.151,90.504 323.834,91.535 324.221,92.877 L322.331,93.317 C322.003,92.268 321.511,91.491 320.878,91.016 C320.245,90.547 319.442,90.301 318.482,90.301 C317.379,90.301 316.454,90.569 315.71,91.09 C314.967,91.635 314.439,92.35 314.143,93.242 C313.844,94.137 313.694,95.064 313.694,96.012 C313.694,97.238 313.874,98.311 314.228,99.225 C314.583,100.143 315.148,100.827 315.895,101.274 C316.645,101.727 317.462,101.959 318.341,101.959 C319.406,101.959 320.315,101.647 321.057,101.035 C321.793,100.41 322.299,99.502 322.562,98.283 L322.562,98.283 Z" id="Shape"></path>
                    <path d="M328.85,103.357 L328.85,88.912 L335.256,88.912 C336.537,88.912 337.522,89.036 338.186,89.3 C338.852,89.559 339.394,90.014 339.79,90.677 C340.192,91.336 340.39,92.054 340.39,92.85 C340.39,93.871 340.061,94.739 339.394,95.438 C338.738,96.149 337.717,96.595 336.33,96.786 C336.831,97.024 337.215,97.269 337.478,97.499 C338.035,98.017 338.559,98.657 339.054,99.423 L341.555,103.359 L339.177,103.359 L337.262,100.353 C336.705,99.49 336.244,98.818 335.885,98.365 C335.515,97.904 335.197,97.578 334.914,97.398 C334.625,97.211 334.337,97.08 334.035,97.011 C333.824,96.966 333.469,96.943 332.977,96.943 L330.765,96.943 L330.765,103.359 L328.85,103.359 L328.85,103.357 Z M330.766,95.283 L334.87,95.283 C335.743,95.283 336.423,95.183 336.918,95.008 C337.401,94.822 337.782,94.529 338.031,94.139 C338.287,93.743 338.412,93.319 338.412,92.85 C338.412,92.164 338.163,91.608 337.668,91.161 C337.174,90.729 336.402,90.507 335.336,90.507 L330.766,90.507 L330.766,95.283 L330.766,95.283 Z" id="Shape"></path>
                    <polygon id="Shape" points="345.465 103.357 345.465 88.912 355.891 88.912 355.891 90.613 347.385 90.613 347.385 95.031 355.349 95.031 355.349 96.741 347.385 96.741 347.385 101.641 356.225 101.641 356.225 103.357"></polygon>
                    <path d="M360.868,103.357 L360.868,88.912 L365.834,88.912 C366.959,88.912 367.818,88.977 368.404,89.119 C369.229,89.307 369.935,89.656 370.518,90.144 C371.283,90.793 371.847,91.614 372.22,92.624 C372.604,93.624 372.791,94.759 372.791,96.048 C372.791,97.151 372.659,98.117 372.407,98.967 C372.146,99.817 371.824,100.515 371.421,101.071 C371.022,101.633 370.582,102.061 370.108,102.383 C369.634,102.694 369.059,102.94 368.39,103.104 C367.716,103.268 366.944,103.356 366.071,103.356 L360.868,103.356 L360.868,103.357 Z M362.779,101.641 L365.851,101.641 C366.803,101.641 367.547,101.557 368.086,101.377 C368.624,101.201 369.056,100.949 369.378,100.627 C369.832,100.18 370.181,99.572 370.433,98.803 C370.685,98.037 370.806,97.108 370.806,96.02 C370.806,94.515 370.565,93.354 370.07,92.545 C369.576,91.731 368.971,91.19 368.262,90.916 C367.759,90.721 366.932,90.613 365.801,90.613 L362.779,90.613 L362.779,101.641 L362.779,101.641 Z" id="Shape"></path>
                    <rect id="Rectangle-path" x="377.779" y="88.912" width="1.909" height="14.445"></rect>
                    <polygon id="Shape" points="388.727 103.357 388.727 90.613 383.98 90.613 383.98 88.912 395.387 88.912 395.387 90.613 390.641 90.613 390.641 103.357"></polygon>
                    <path d="M416.115,88.912 L418.023,88.912 L418.023,97.254 C418.023,98.709 417.862,99.861 417.531,100.719 C417.206,101.571 416.608,102.264 415.753,102.801 C414.899,103.328 413.772,103.597 412.375,103.597 C411.021,103.597 409.918,103.368 409.061,102.899 C408.194,102.436 407.582,101.758 407.215,100.873 C406.846,99.994 406.665,98.788 406.665,97.255 L406.665,88.913 L408.574,88.913 L408.574,97.24 C408.574,98.493 408.691,99.423 408.921,100.008 C409.155,100.604 409.562,101.067 410.13,101.389 C410.698,101.707 411.39,101.873 412.213,101.873 C413.616,101.873 414.62,101.551 415.22,100.916 C415.814,100.279 416.114,99.056 416.114,97.239 L416.114,88.912 L416.115,88.912 Z" id="Shape"></path>
                    <polygon id="Shape" points="423.197 103.357 423.197 88.912 425.146 88.912 432.78 100.264 432.78 88.912 434.597 88.912 434.597 103.357 432.657 103.357 425.017 91.99 425.017 103.357"></polygon>
                    <rect id="Rectangle-path" x="440.128" y="88.912" width="1.915" height="14.445"></rect>
                    <path d="M446.825,96.324 C446.825,93.928 447.467,92.053 448.756,90.699 C450.041,89.344 451.711,88.66 453.739,88.66 C455.075,88.66 456.276,88.977 457.345,89.617 C458.419,90.252 459.239,91.138 459.8,92.283 C460.36,93.424 460.641,94.709 460.641,96.155 C460.641,97.613 460.342,98.931 459.751,100.086 C459.155,101.246 458.323,102.117 457.239,102.711 C456.155,103.299 454.983,103.597 453.726,103.597 C452.368,103.597 451.153,103.27 450.083,102.615 C449.01,101.961 448.201,101.066 447.651,99.927 C447.101,98.797 446.825,97.591 446.825,96.324 L446.825,96.324 Z M448.806,96.346 C448.806,98.089 449.269,99.459 450.209,100.455 C451.144,101.453 452.311,101.961 453.722,101.961 C455.157,101.961 456.344,101.453 457.267,100.44 C458.19,99.43 458.659,98.001 458.659,96.141 C458.659,94.961 458.464,93.936 458.061,93.065 C457.672,92.194 457.091,91.508 456.318,91.024 C455.556,90.549 454.704,90.303 453.757,90.303 C452.403,90.303 451.246,90.765 450.265,91.696 C449.289,92.625 448.806,94.174 448.806,96.346 L448.806,96.346 Z" id="Shape"></path>
                    <polygon id="Shape" points="465.084 103.357 465.084 88.912 467.04 88.912 474.672 100.264 474.672 88.912 476.491 88.912 476.491 103.357 474.543 103.357 466.908 91.99 466.908 103.357"></polygon>
                </g>
                <g transform="translate(552.000000, 49.000000)" id="Shape">
                    <path d="M4.091,1.994 C3.348,1.54 2.623,1.398 2.283,1.398 C2.058,1.398 1.674,1.447 1.674,1.822 C1.674,2.412 4.364,2.433 4.364,4.22 C4.364,5.333 3.564,5.958 2.158,5.958 C1.284,5.958 0.453,5.692 0.222,5.564 L0.222,4.381 C0.771,4.611 1.324,4.835 1.965,4.835 C2.47,4.835 2.788,4.681 2.788,4.444 C2.788,3.659 0.101,3.801 0.101,2.044 C0.101,1.064 1.004,0.401 2.345,0.401 C3.022,0.401 3.529,0.518 4.091,0.796 L4.091,1.994 L4.091,1.994 Z"></path>
                    <path d="M7.12,1.195 C7.413,0.929 7.724,0.726 8.025,0.588 C8.338,0.461 8.661,0.402 8.998,0.402 C9.936,0.402 10.57,0.771 10.946,1.54 C11.654,0.742 12.276,0.402 13.082,0.402 C14.32,0.402 15.194,1.203 15.194,2.425 L15.194,5.857 L13.492,5.857 L13.492,2.722 C13.492,1.956 13.119,1.533 12.496,1.533 C12.001,1.533 11.544,1.844 11.16,2.433 L11.16,5.857 L9.457,5.857 L9.457,2.687 C9.457,1.822 8.93,1.533 8.424,1.533 C7.977,1.533 7.533,1.785 7.12,2.267 L7.12,5.857 L5.421,5.857 L5.421,0.509 L7.12,0.509 L7.12,1.195 L7.12,1.195 Z"></path>
                </g>
            </g>
        </g>
    </g>
</svg>